<svg width="130" height="130" viewBox="0 0 130 130" fill="none" xmlns="http://www.w3.org/2000/svg">
<g filter="url(#filter0_d_18_40)">
<circle cx="65" cy="65" r="35" fill="#F5FAFF"/>
</g>
<path d="M43.0595 71C42.7662 71 42.5195 70.9 42.3195 70.7C42.1195 70.5 42.0195 70.2533 42.0195 69.96V56.42C42.0195 56.1133 42.1195 55.8667 42.3195 55.68C42.5195 55.48 42.7662 55.38 43.0595 55.38C43.3662 55.38 43.6129 55.48 43.7995 55.68C43.9995 55.8667 44.0995 56.1133 44.0995 56.42V62.16H46.1595L51.5395 55.72C51.7262 55.4933 51.9662 55.38 52.2595 55.38C52.5662 55.3667 52.8129 55.4667 52.9995 55.68C53.1862 55.8933 53.2729 56.12 53.2595 56.36C53.2595 56.5867 53.1662 56.8067 52.9795 57.02L47.9195 62.9L53.4995 69.38C53.6862 69.5933 53.7862 69.82 53.7995 70.06C53.8262 70.2867 53.7262 70.5133 53.4995 70.74C53.3129 70.9267 53.0595 71.0133 52.7395 71C52.4195 71 52.1662 70.8933 51.9795 70.68L46.2395 64H44.0995V69.96C44.0995 70.2533 43.9995 70.5 43.7995 70.7C43.6129 70.9 43.3662 71 43.0595 71ZM56.803 71.02C56.5096 71.02 56.2763 70.9267 56.103 70.74C55.9296 70.54 55.843 70.2933 55.843 70V61.08C55.843 60.7733 55.9296 60.5267 56.103 60.34C56.2763 60.1533 56.5096 60.06 56.803 60.06C57.1096 60.06 57.3563 60.1533 57.543 60.34C57.743 60.5267 57.843 60.7733 57.843 61.08V64.42H59.363L62.983 60.38C63.1563 60.1933 63.3963 60.0867 63.703 60.06C64.023 60.0333 64.2696 60.1 64.443 60.26C64.643 60.4467 64.7563 60.66 64.783 60.9C64.8096 61.1267 64.7363 61.3333 64.563 61.52L60.943 65.4L64.783 69.52C64.9563 69.6933 65.043 69.9 65.043 70.14C65.043 70.3667 64.9363 70.5733 64.723 70.76C64.5496 70.92 64.303 71 63.983 71C63.6763 70.9867 63.4363 70.8933 63.263 70.72L59.143 66.3H57.843V70C57.843 70.2933 57.743 70.54 57.543 70.74C57.3563 70.9267 57.1096 71.02 56.803 71.02ZM71.1061 71.08C70.1328 71.08 69.2594 70.84 68.4861 70.36C67.7128 69.8667 67.0994 69.2067 66.6461 68.38C66.2061 67.54 65.9861 66.5933 65.9861 65.54C65.9861 64.4867 66.2261 63.54 66.7061 62.7C67.1994 61.86 67.8594 61.2 68.6861 60.72C69.5261 60.2267 70.4661 59.98 71.5061 59.98C72.5461 59.98 73.4794 60.2267 74.3061 60.72C75.1328 61.2 75.7861 61.86 76.2661 62.7C76.7594 63.54 77.0061 64.4867 77.0061 65.54V70C77.0061 70.2933 76.9061 70.54 76.7061 70.74C76.5194 70.9267 76.2794 71.02 75.9861 71.02C75.6928 71.02 75.4461 70.9267 75.2461 70.74C75.0594 70.54 74.9661 70.2933 74.9661 70V69.26C74.4994 69.82 73.9328 70.2667 73.2661 70.6C72.6128 70.92 71.8928 71.08 71.1061 71.08ZM71.5061 69.28C72.1861 69.28 72.7928 69.12 73.3261 68.8C73.8594 68.4667 74.2794 68.02 74.5861 67.46C74.8928 66.8867 75.0461 66.2467 75.0461 65.54C75.0461 64.82 74.8928 64.18 74.5861 63.62C74.2794 63.0467 73.8594 62.6 73.3261 62.28C72.7928 61.9467 72.1861 61.78 71.5061 61.78C70.8394 61.78 70.2328 61.9467 69.6861 62.28C69.1528 62.6 68.7261 63.0467 68.4061 63.62C68.0994 64.18 67.9461 64.82 67.9461 65.54C67.9461 66.2467 68.0994 66.8867 68.4061 67.46C68.7261 68.02 69.1528 68.4667 69.6861 68.8C70.2328 69.12 70.8394 69.28 71.5061 69.28ZM84.1422 60.08C84.5555 60.08 84.8622 60.3 85.0622 60.74L89.1822 69.68C89.3022 69.9467 89.3155 70.1867 89.2222 70.4C89.1289 70.6 88.9689 70.7533 88.7422 70.86C88.1555 71.1267 87.7222 70.9933 87.4422 70.46L84.1822 63.06L80.8222 70.46C80.7022 70.7133 80.5222 70.88 80.2822 70.96C80.0555 71.0267 79.8022 70.9933 79.5222 70.86C79.2689 70.74 79.0889 70.58 78.9822 70.38C78.8889 70.18 78.9089 69.9467 79.0422 69.68L83.1822 60.74C83.3822 60.3 83.7022 60.08 84.1422 60.08Z" fill="#020202"/>
<defs>
<filter id="filter0_d_18_40" x="0" y="0" width="130" height="130" filterUnits="userSpaceOnUse" color-interpolation-filters="sRGB">
<feFlood flood-opacity="0" result="BackgroundImageFix"/>
<feColorMatrix in="SourceAlpha" type="matrix" values="0 0 0 0 0 0 0 0 0 0 0 0 0 0 0 0 0 0 127 0" result="hardAlpha"/>
<feOffset/>
<feGaussianBlur stdDeviation="15"/>
<feColorMatrix type="matrix" values="0 0 0 0 0.337255 0 0 0 0 0.337255 0 0 0 0 0.337255 0 0 0 0.25 0"/>
<feBlend mode="normal" in2="BackgroundImageFix" result="effect1_dropShadow_18_40"/>
<feBlend mode="normal" in="SourceGraphic" in2="effect1_dropShadow_18_40" result="shape"/>
</filter>
</defs>
</svg>
