<svg width="130" height="130" viewBox="0 0 130 130" fill="none" xmlns="http://www.w3.org/2000/svg">
<g filter="url(#filter0_d_18_39)">
<circle cx="65" cy="65" r="35" fill="#F5FAFF"/>
</g>
<path d="M65.268 64C64.02 64 62.902 63.714 61.914 63.142C60.926 62.5527 60.1373 61.764 59.548 60.776C58.976 59.788 58.69 58.67 58.69 57.422C58.69 57.1793 58.7593 56.9887 58.898 56.85C59.054 56.694 59.2447 56.616 59.47 56.616C59.6953 56.616 59.886 56.694 60.042 56.85C60.198 56.9887 60.276 57.1793 60.276 57.422C60.276 58.358 60.4927 59.2073 60.926 59.97C61.3767 60.7153 61.9747 61.3133 62.72 61.764C63.4827 62.1973 64.332 62.414 65.268 62.414C66.2213 62.414 67.0707 62.1973 67.816 61.764C68.5613 61.3133 69.1507 60.7153 69.584 59.97C70.0347 59.2073 70.26 58.358 70.26 57.422C70.26 56.4687 70.0347 55.6193 69.584 54.874C69.1507 54.1113 68.5613 53.5133 67.816 53.08C67.0707 52.6293 66.2213 52.404 65.268 52.404H60.536C60.3107 52.404 60.12 52.3347 59.964 52.196C59.8253 52.04 59.756 51.8493 59.756 51.624V44.448C59.756 44.2227 59.8253 44.0407 59.964 43.902C60.12 43.746 60.3107 43.668 60.536 43.668H70C70.2253 43.668 70.416 43.746 70.572 43.902C70.728 44.0407 70.806 44.2227 70.806 44.448C70.806 44.6733 70.728 44.864 70.572 45.02C70.416 45.176 70.2253 45.254 70 45.254H61.316V50.844H65.268C66.516 50.844 67.634 51.13 68.622 51.702C69.61 52.274 70.39 53.0627 70.962 54.068C71.5513 55.056 71.846 56.174 71.846 57.422C71.846 58.67 71.5513 59.788 70.962 60.776C70.39 61.764 69.61 62.5527 68.622 63.142C67.634 63.714 66.516 64 65.268 64Z" fill="#020202"/>
<path d="M83.9453 68H53.4254C53.1018 68 52.8395 68.3242 52.8395 68.724C52.8395 69.1238 53.1018 69.448 53.4254 69.448H83.8281V72.2307H46.1719V69.448H51.0816C51.4052 69.448 51.6676 69.1238 51.6676 68.724C51.6676 68.3242 51.4052 68 51.0816 68H46.0547C45.4731 68 45 68.5846 45 69.3032V72.3755C45 73.0941 45.4731 73.6787 46.0547 73.6787H46.881V84.552C46.881 85.2706 47.3541 85.8552 47.9357 85.8552H49.9473C50.5288 85.8552 51.002 85.2706 51.002 84.552C51.002 84.552 51.002 79.1431 51.002 77.429C51.002 75.7149 51.002 75.981 51.002 75.981C51.002 74.533 51.002 73.6787 51.002 73.6787H78.7469C78.7469 73.6787 78.7469 74.9618 78.7469 75.981C78.7469 77.0002 78.7468 77.0006 78.7468 77.429C78.7468 77.8573 78.7468 84.6968 78.7468 84.6968C78.7468 85.4154 79.2199 86 79.8015 86H81.813C82.3945 86 82.8677 85.4154 82.8677 84.6968V73.6788H83.9453C84.5269 73.6788 85 73.0942 85 72.3756V69.3033C85 68.5846 84.5269 68 83.9453 68ZM49.8301 84.4073H48.0529V73.6788H49.8301V84.4073ZM81.6959 84.552H79.9188V73.6788H81.6959V84.552Z" fill="#020202"/>
<defs>
<filter id="filter0_d_18_39" x="0" y="0" width="130" height="130" filterUnits="userSpaceOnUse" color-interpolation-filters="sRGB">
<feFlood flood-opacity="0" result="BackgroundImageFix"/>
<feColorMatrix in="SourceAlpha" type="matrix" values="0 0 0 0 0 0 0 0 0 0 0 0 0 0 0 0 0 0 127 0" result="hardAlpha"/>
<feOffset/>
<feGaussianBlur stdDeviation="15"/>
<feColorMatrix type="matrix" values="0 0 0 0 0.337255 0 0 0 0 0.337255 0 0 0 0 0.337255 0 0 0 0.25 0"/>
<feBlend mode="normal" in2="BackgroundImageFix" result="effect1_dropShadow_18_39"/>
<feBlend mode="normal" in="SourceGraphic" in2="effect1_dropShadow_18_39" result="shape"/>
</filter>
</defs>
</svg>
