<svg width="38" height="38" viewBox="0 0 38 38" fill="none" xmlns="http://www.w3.org/2000/svg">
<path d="M34.0397 22.8854C33.7419 22.1488 32.9032 21.7928 32.1665 22.0908C31.4298 22.3886 31.074 23.2272 31.3718 23.9639L33.0664 28.1556L28.0336 25.937C27.6693 25.7765 27.2547 25.7739 26.8885 25.9302C25.1686 26.664 23.3261 27.0361 21.4122 27.0361C13.7094 27.0361 8.53502 21.0051 8.53502 15.3721C8.53502 8.94057 14.3117 3.70812 21.4122 3.70812C28.5127 3.70812 34.2894 8.94057 34.2894 15.3721C34.2894 15.8739 34.2426 16.4747 34.1613 17.0205C34.044 17.8064 34.5861 18.5385 35.372 18.6558C36.158 18.7734 36.8902 18.231 37.0073 17.4451C37.1103 16.7552 37.167 16.0189 37.167 15.3721C37.167 11.4636 35.5119 7.7963 32.5065 5.04569C29.5367 2.32753 25.5966 0.830536 21.4122 0.830536C17.2278 0.830536 13.2878 2.32753 10.3179 5.04562C7.63225 7.50365 6.02599 10.694 5.71442 14.1341C2.33635 16.3711 0.33391 19.9558 0.33391 23.817C0.33391 26.229 1.09381 28.5176 2.5403 30.4871L0.438798 35.6856C0.219311 36.2284 0.350744 36.8502 0.771231 37.2578C1.04525 37.5235 1.40631 37.6637 1.77299 37.6637C1.96888 37.6636 2.16643 37.6237 2.35304 37.5414L8.41244 34.8703C9.93669 35.4377 11.5479 35.7249 13.211 35.7249C13.247 35.7249 13.2823 35.7221 13.3176 35.7195C15.7231 35.7013 18.0616 35.0686 20.087 33.8845C21.9012 32.8239 23.3935 31.3668 24.4397 29.6461C25.4612 29.4626 26.4596 29.1855 27.4286 28.8151L35.1478 32.2179C35.3345 32.3001 35.5319 32.3402 35.7278 32.3402C36.0945 32.3401 36.4556 32.1999 36.7297 31.9343C37.1501 31.5267 37.2816 30.905 37.0621 30.362L34.0397 22.8854ZM13.2112 32.8437C13.1915 32.8437 13.1724 32.8458 13.1529 32.8466C11.6837 32.8391 10.2697 32.5504 8.94911 31.9869C8.58301 31.8306 8.16842 31.8331 7.80412 31.9938L4.43468 33.479L5.52162 30.7903C5.72254 30.2933 5.63039 29.7256 5.28263 29.3177C3.92765 27.728 3.21149 25.826 3.21149 23.817C3.21149 21.5178 4.17872 19.3392 5.87103 17.6873C6.39791 20.5595 7.88455 23.3071 10.1271 25.4654C12.9177 28.1511 16.6089 29.707 20.5948 29.8943C18.7235 31.7364 16.0456 32.8437 13.2112 32.8437Z" fill="black"/>
<path d="M21.3404 16.873C22.135 16.873 22.7792 16.2289 22.7792 15.4342C22.7792 14.6396 22.135 13.9955 21.3404 13.9955C20.5458 13.9955 19.9016 14.6396 19.9016 15.4342C19.9016 16.2289 20.5458 16.873 21.3404 16.873Z" fill="black"/>
<path d="M27.0974 16.873C27.892 16.873 28.5362 16.2289 28.5362 15.4342C28.5362 14.6396 27.892 13.9955 27.0974 13.9955C26.3027 13.9955 25.6586 14.6396 25.6586 15.4342C25.6586 16.2289 26.3027 16.873 27.0974 16.873Z" fill="black"/>
<path d="M15.5855 16.873C16.3801 16.873 17.0243 16.2289 17.0243 15.4342C17.0243 14.6396 16.3801 13.9955 15.5855 13.9955C14.7909 13.9955 14.1467 14.6396 14.1467 15.4342C14.1467 16.2289 14.7909 16.873 15.5855 16.873Z" fill="black"/>
</svg>
