<svg width="62" height="62" viewBox="0 0 62 62" fill="none" xmlns="http://www.w3.org/2000/svg">
<path d="M59.5142 31.3553C59.5841 31.1527 59.5889 30.9331 59.5278 30.7276C59.4667 30.522 59.3428 30.3408 59.1734 30.2092C59.0041 30.0777 58.7978 30.0025 58.5835 29.9941C58.3693 29.9857 58.1577 30.0446 57.9787 30.1626C56.1732 31.3516 54.1734 31.9055 51.685 31.9055C45.0316 31.9055 39.6187 26.3615 39.6187 19.547C39.6187 14.4094 42.9358 9.56197 47.6852 7.75895C47.8844 7.68349 48.0552 7.54795 48.174 7.3711C48.2927 7.19425 48.3535 6.98484 48.348 6.77188C48.3424 6.55892 48.2708 6.35296 48.143 6.18253C48.0152 6.01209 47.8376 5.88562 47.6347 5.82063C45.7509 5.21616 43.5822 5.13464 41.7092 5.13464C31.173 5.13464 22.6011 13.8875 22.6011 24.6462C22.5997 26.2657 22.7961 27.8794 23.1857 29.4513C21.9264 28.9903 20.5958 28.7543 19.2548 28.7539C12.9479 28.7539 7.8174 33.8214 7.8174 40.0501C7.81796 40.9035 7.91799 41.754 8.11546 42.5842C6.08298 42.9134 4.20812 43.8812 2.76262 45.3474C0.995991 47.1227 0.00563543 49.5263 0.00879661 52.0308C0.00879661 57.3159 4.36141 61.6155 9.71143 61.6155H41.8117C47.6402 61.6155 52.3819 56.9319 52.3819 51.1751C52.3792 49.5904 52.0136 48.0274 51.3133 46.6059C50.6129 45.1843 49.5963 43.942 48.3415 42.9742C53.534 41.0323 57.6269 36.8213 59.5142 31.3553ZM50.3281 51.1751C50.3281 55.7993 46.5077 59.5616 41.8117 59.5616H9.71143C5.49385 59.5616 2.06264 56.1833 2.06264 52.0308C2.06076 50.067 2.83789 48.1825 4.22355 46.7909C5.61654 45.3802 7.50166 44.5636 9.48358 44.5124C9.64575 44.5076 9.80448 44.4645 9.94675 44.3865C10.089 44.3085 10.2108 44.1979 10.3021 44.0638C10.3934 43.9297 10.4516 43.7758 10.4719 43.6148C10.4923 43.4539 10.4742 43.2904 10.4192 43.1378C10.0589 42.1481 9.87338 41.1033 9.87086 40.0501C9.87086 34.9539 14.0805 30.8077 19.2544 30.8077C23.154 30.8077 26.6867 33.2338 28.0454 36.8437C28.0949 36.9754 28.1709 37.0955 28.2688 37.1965C28.3666 37.2975 28.4842 37.3774 28.6142 37.4312C28.7441 37.4849 28.8838 37.5114 29.0244 37.5089C29.165 37.5064 29.3037 37.4751 29.4317 37.4169C30.3219 37.0091 31.2895 36.7981 32.2686 36.7982C35.4882 36.7982 38.2838 39.0501 38.916 42.1528C38.9702 42.4187 39.1274 42.6524 39.3534 42.8027C39.5794 42.9531 39.8556 43.0079 40.1219 42.9551C40.6784 42.8446 41.2444 42.7887 41.8118 42.7882C46.5077 42.7885 50.3281 46.5507 50.3281 51.1751ZM45.959 41.5734C44.2931 40.8708 42.4759 40.6032 40.6782 40.7956C39.518 37.2374 36.126 34.7447 32.2685 34.7447C31.3485 34.7439 30.434 34.8872 29.5584 35.1693C28.688 33.3905 27.368 31.8698 25.7293 30.7578C25.0149 28.7995 24.6512 26.7307 24.655 24.6462C24.655 15.0199 32.3056 7.18849 41.7092 7.18849C42.5003 7.18849 43.3459 7.20338 44.1858 7.27039C40.1795 9.94655 37.5648 14.6337 37.5648 19.547C37.5648 27.494 43.8991 33.9594 51.685 33.9594C53.4639 33.9594 55.0369 33.712 56.484 33.1948C54.2745 37.3672 50.4949 40.4086 45.959 41.573V41.5734Z" fill="#64D370"/>
<path d="M53.409 14.377C53.1367 14.377 52.8755 14.4852 52.6829 14.6778C52.4903 14.8704 52.3821 15.1316 52.3821 15.4039V17.0599L50.653 16.4835C50.5247 16.4393 50.3889 16.421 50.2535 16.4296C50.118 16.4382 49.9857 16.4736 49.864 16.5337C49.7423 16.5938 49.6337 16.6774 49.5446 16.7797C49.4554 16.882 49.3874 17.0009 49.3445 17.1297C49.3015 17.2584 49.2846 17.3944 49.2945 17.5297C49.3045 17.6651 49.3411 17.7971 49.4024 17.9182C49.4637 18.0393 49.5484 18.147 49.6515 18.2352C49.7547 18.3233 49.8743 18.3902 50.0035 18.4318L51.8088 19.0336L50.5008 20.9957C50.4251 21.1079 50.3723 21.2339 50.3455 21.3665C50.3187 21.4992 50.3184 21.6358 50.3446 21.7686C50.3708 21.9013 50.4229 22.0276 50.4981 22.1401C50.5732 22.2527 50.6698 22.3493 50.7824 22.4243C50.895 22.4994 51.0213 22.5515 51.1541 22.5776C51.2869 22.6037 51.4235 22.6033 51.5561 22.5764C51.6888 22.5495 51.8148 22.4967 51.9269 22.4209C52.039 22.3452 52.1351 22.248 52.2096 22.135L53.409 20.336L54.6085 22.1352C54.7602 22.3602 54.9949 22.516 55.2612 22.5685C55.5275 22.621 55.8037 22.5659 56.0295 22.4153C56.2553 22.2648 56.4124 22.0309 56.4663 21.7649C56.5202 21.4989 56.4666 21.2224 56.3173 20.9958L55.0092 19.0337L56.8146 18.432C57.0704 18.3439 57.2812 18.1583 57.401 17.9157C57.5208 17.673 57.54 17.3929 57.4544 17.1362C57.3688 16.8795 57.1854 16.6669 56.9439 16.5447C56.7025 16.4225 56.4226 16.4006 56.165 16.4836L54.4359 17.0599V15.4039C54.4359 15.1316 54.3277 14.8704 54.1352 14.6778C53.9426 14.4852 53.6814 14.377 53.409 14.377Z" fill="#64D370"/>
<path d="M3.0901 26.302L1.36102 25.7256C1.2327 25.6814 1.09691 25.6631 0.961473 25.6717C0.826041 25.6804 0.693659 25.7157 0.57198 25.7758C0.450301 25.8359 0.341739 25.9195 0.252568 26.0218C0.163397 26.1241 0.0953864 26.2431 0.0524671 26.3718C0.00954783 26.5006 -0.00742886 26.6365 0.00251839 26.7719C0.0124656 26.9072 0.0491395 27.0392 0.11042 27.1603C0.171701 27.2814 0.256373 27.3891 0.359542 27.4773C0.462711 27.5655 0.582331 27.6323 0.711488 27.674L2.51682 28.2757L1.20878 30.2378C1.13311 30.35 1.08036 30.476 1.05356 30.6087C1.02676 30.7413 1.02643 30.8779 1.05261 31.0107C1.07878 31.1434 1.13094 31.2697 1.20608 31.3823C1.28122 31.4948 1.37786 31.5914 1.49044 31.6665C1.60303 31.7415 1.72934 31.7936 1.86212 31.8197C1.9949 31.8458 2.13153 31.8454 2.26415 31.8185C2.39677 31.7916 2.52277 31.7388 2.63491 31.663C2.74705 31.5873 2.84311 31.4902 2.91758 31.3772L4.11702 29.5781L5.31647 31.3773C5.39094 31.4903 5.487 31.5874 5.59914 31.6632C5.71128 31.7389 5.83728 31.7917 5.9699 31.8186C6.10252 31.8455 6.23915 31.8459 6.37193 31.8198C6.5047 31.7937 6.63102 31.7417 6.7436 31.6666C6.85619 31.5915 6.95283 31.4949 7.02797 31.3824C7.10311 31.2699 7.15526 31.1436 7.18144 31.0108C7.20761 30.878 7.20729 30.7414 7.18049 30.6088C7.15369 30.4761 7.10094 30.3501 7.02527 30.2379L5.71723 28.2759L7.52256 27.6741C7.77843 27.586 7.98918 27.4004 8.109 27.1578C8.22882 26.9152 8.24802 26.635 8.16244 26.3783C8.07685 26.1216 7.8934 25.909 7.65195 25.7868C7.4105 25.6646 7.13058 25.6427 6.87303 25.7257L5.14395 26.302V24.6461C5.14395 24.3737 5.03575 24.1125 4.84317 23.9199C4.65058 23.7273 4.38938 23.6191 4.11702 23.6191C3.84467 23.6191 3.58347 23.7273 3.39088 23.9199C3.19829 24.1125 3.0901 24.3737 3.0901 24.6461V26.302Z" fill="#64D370"/>
<path d="M7.65574 10.0966C7.88234 10.2477 8.15968 10.3026 8.42675 10.2492C8.69382 10.1958 8.92874 10.0385 9.07983 9.81193L10.2793 8.01275L11.4787 9.81193C11.6305 10.0369 11.8652 10.1927 12.1314 10.2452C12.3977 10.2977 12.674 10.2427 12.8998 10.0921C13.1256 9.94153 13.2826 9.70769 13.3365 9.44169C13.3905 9.1757 13.3369 8.89917 13.1875 8.67255L11.8795 6.71049L13.6848 6.10871C13.9407 6.02061 14.1514 5.83507 14.2712 5.59244C14.3911 5.3498 14.4103 5.06967 14.3247 4.81295C14.2391 4.55624 14.0556 4.34367 13.8142 4.22148C13.5728 4.09928 13.2928 4.07732 13.0353 4.16038L11.3062 4.73661V3.0807C11.3062 2.80834 11.198 2.54714 11.0054 2.35455C10.8128 2.16197 10.5516 2.05377 10.2793 2.05377C10.0069 2.05377 9.74572 2.16197 9.55313 2.35455C9.36055 2.54714 9.25235 2.80834 9.25235 3.0807V4.73661L7.52327 4.16025C7.26572 4.07719 6.9858 4.09915 6.74435 4.22135C6.5029 4.34355 6.31945 4.55611 6.23386 4.81283C6.14828 5.06955 6.16748 5.34967 6.2873 5.59231C6.40712 5.83494 6.61787 6.02048 6.87374 6.10858L8.67907 6.71036L7.37103 8.67255C7.21994 8.89916 7.16506 9.1765 7.21845 9.44356C7.27185 9.71063 7.42914 9.94555 7.65574 10.0966Z" fill="#64D370"/>
<path d="M58.5447 6.16158C59.1119 6.16158 59.5717 5.70181 59.5717 5.13465C59.5717 4.5675 59.1119 4.10773 58.5447 4.10773C57.9776 4.10773 57.5178 4.5675 57.5178 5.13465C57.5178 5.70181 57.9776 6.16158 58.5447 6.16158Z" fill="#64D370"/>
<path d="M16.439 21.5655C17.0062 21.5655 17.466 21.1057 17.466 20.5386C17.466 19.9714 17.0062 19.5117 16.439 19.5117C15.8719 19.5117 15.4121 19.9714 15.4121 20.5386C15.4121 21.1057 15.8719 21.5655 16.439 21.5655Z" fill="#64D370"/>
<path d="M31.8441 2.05385C32.4112 2.05385 32.871 1.59408 32.871 1.02692C32.871 0.45977 32.4112 0 31.8441 0C31.2769 0 30.8171 0.45977 30.8171 1.02692C30.8171 1.59408 31.2769 2.05385 31.8441 2.05385Z" fill="#64D370"/>
<path d="M60.5985 42.1038C61.1656 42.1038 61.6254 41.644 61.6254 41.0769C61.6254 40.5097 61.1656 40.0499 60.5985 40.0499C60.0313 40.0499 59.5715 40.5097 59.5715 41.0769C59.5715 41.644 60.0313 42.1038 60.5985 42.1038Z" fill="#64D370"/>
</svg>
