<?xml version="1.0" standalone="no"?>
  <!DOCTYPE svg PUBLIC "-//W3C//DTD SVG 1.1//EN" "http://www.w3.org/Graphics/SVG/1.1/DTD/svg11.dtd" >
  <svg>
  <metadata>
  Created by font-carrier
  </metadata>
  <defs>
  <font id="Comfortaa-Light" horiz-adv-x="2640" vert-adv-y="2640" >
    <font-face
      
      font-family="Comfortaa"
      
      font-weight="400"
      
      font-stretch="normal"
      
      units-per-em="2048"
      
      ascent="1600"
      
      descent="-480"
      
    />
      <missing-glyph />

      

      
      <glyph glyph-name="uni21" unicode="&#x21;" d="M307 104Q307 60 277 30Q248 0 204 0Q160 0 130 30Q100 60 100 104Q100 148 130 177Q160 207 204 207Q248 207 277 177Q307 148 307 104M141 1539Q141 1565 159.50 1583Q178 1601 204 1601Q230 1601 248 1583Q266 1565 266 1539L266 393Q266 367 248 351Q230 332 204 332Q178 332 160 351Q141 368 141 393L141 1539Z"  horiz-adv-x="400" vert-adv-y="2048"  />

      
      <glyph glyph-name="uni22" unicode="&#x22;" d="M202 1227Q202 1210 190 1198Q178 1186 161 1186Q144 1186 131.50 1198Q119 1210 119 1227L99 1539Q99 1565 117 1583Q135 1601 161 1601Q187 1601 205 1583Q223 1565 223 1539L202 1227M451 1227Q451 1210 439 1198Q427 1186 410 1186Q393 1186 380.50 1198Q368 1210 368 1227L347 1539Q347 1565 365.50 1583Q384 1601 410 1601Q436 1601 454 1583Q472 1565 472 1539L451 1227Z"  horiz-adv-x="560" vert-adv-y="2048"  />

      
      <glyph glyph-name="uni23" unicode="&#x23;" d="M371 65Q366 39 343.50 19.50Q321 0 294 0Q271 0 256.50 17Q242 34 246 58L324 498L133 498Q109 498 97 512Q85 526 85 544Q86 583 110.50 602.50Q135 622 162 622L346 622L411 996L221 996Q196 996 182.50 1013.50Q169 1031 173 1055L173 1054Q178 1081 200.50 1100.50Q223 1120 251 1120L434 1120L510 1552Q515 1579 537 1598.50Q559 1618 587 1618Q610 1618 624 1600.50Q638 1583 634 1559L558 1120L849 1120L925 1552Q930 1579 952 1598.50Q974 1618 1001 1618Q1025 1618 1039 1600.50Q1053 1583 1049 1559L972 1120L1163 1120Q1187 1120 1199 1105Q1211 1090 1211 1073Q1209 1035 1184.50 1015.50Q1160 996 1133 996L950 996L884 622L1075 622Q1098 622 1112.50 605Q1127 588 1123 564Q1117 537 1095 517.50Q1073 498 1046 498L862 498L786 65Q780 39 758 19.50Q736 0 709 0Q686 0 671.50 17Q657 34 661 58L739 498L448 498L371 65M535 996L469 622L761 622L826 996L535 996Z"  horiz-adv-x="1280" vert-adv-y="2048"  />

      
      <glyph glyph-name="uni24" unicode="&#x24;" d="M509 1Q298 0 145 169Q125 191 108 216Q94 234 94 256Q94 282 112 300Q130 318 156 318Q190 318 209 290Q222 270 240 250Q286 196 354 163Q422 130 509 123L509 832Q360 861 269 967Q224 1021 200 1085Q176 1149 177 1254Q184 1334 219.50 1402Q255 1470 315 1522Q333 1536 355.50 1549.50Q378 1563 403.50 1575Q429 1587 456 1596.50Q483 1606 509 1612L509 1721Q509 1747 527 1765.50Q545 1784 571 1784Q597 1784 615 1765.50Q633 1747 633 1721L633 1611Q708 1597 766.50 1563Q825 1529 871 1477Q894 1453 909 1424Q918 1407 918 1390Q918 1364 900 1345.50Q882 1327 856 1327Q831 1327 817 1343Q807 1354 796 1369.50Q785 1385 775 1396Q727 1453 633 1485L633 939Q705 919 766 879.50Q827 840 874 786Q927 720 956.50 643Q986 566 986 484Q979 340 936 258.50Q893 177 818 114Q739 49 633 16L633-104Q633-130 615-148Q597-166 571-166Q545-166 527-148Q509-130 509-104L509 1M509 1486Q474 1475 445 1459.50Q416 1444 396 1427Q356 1391 330.50 1343.50Q305 1296 301 1244Q297 1190 314 1140Q331 1090 366 1047Q389 1019 425 996.50Q461 974 509 958L509 1486M633 145Q690 167 737 209Q788 255 822.50 317.50Q857 380 861 481Q861 610 778 706Q752 736 715.50 761.50Q679 787 633 810L633 145Z"  horiz-adv-x="1060" vert-adv-y="2048"  />

      
      <glyph glyph-name="uni25" unicode="&#x25;" d="M876 1208Q876 1043 760 929Q646 814 481 814Q317 814 203 929Q87 1043 87 1208Q87 1371 203 1487Q318 1602 481 1602Q645 1602 760 1487Q876 1371 876 1208M917 394Q917 558 1032 673Q1147 788 1311 788Q1475 788 1590 673Q1705 558 1705 394Q1705 230 1590 115Q1475 0 1311 0Q1147 0 1032 115Q917 230 917 394M481 1477Q371 1477 291 1397Q212 1319 212 1208Q212 1096 291 1017Q370 938 481 938Q592 938 671 1017Q751 1097 751 1208Q751 1319 671 1397Q591 1477 481 1477M1311 664Q1200 664 1120 584Q1041 505 1041 394Q1041 282 1120 203Q1199 124 1311 124Q1422 124 1501 203Q1581 283 1581 394Q1581 504 1501 584Q1421 664 1311 664M316 0Q290 0 271.50 18Q253 36 253 62Q253 86 269 105L1425 1574Q1437 1587 1449.50 1594Q1462 1601 1477 1601Q1503 1601 1521 1583Q1539 1565 1539 1539Q1539 1517 1527 1501L364 23Q342 0 316 0Z"  horiz-adv-x="1760" vert-adv-y="2048"  />

      
      <glyph glyph-name="uni26" unicode="&#x26;" d="M506 953L643 1061Q700 1106 727 1154Q754 1202 754 1255Q754 1346 687 1415Q620 1481 526 1481Q431 1481 364 1415Q298 1347 298 1255Q298 1162 364 1095L506 953M904 382L492 793L360 693Q215 581 215 452Q215 305 306 214Q398 123 526 123Q654 123 746 214L904 382M591 869L991 472L1189 682Q1205 699 1231 699Q1257 699 1275 681.50Q1293 664 1293 638Q1293 615 1279 596L1078 386L1360 103Q1376 86 1376 62Q1376 36 1358 18Q1340 0 1314 0Q1289 0 1271 17L992 295L833 127L834 127Q706 0 526 0Q346 0 218 127Q90 254 90 452Q90 540 139 622.50Q188 705 278 777L407 877L276 1007Q173 1112 173 1255Q173 1400 276 1502Q379 1605 526 1605Q672 1605 775 1502Q879 1401 879 1255Q879 1101 734 977L735 978L591 869Z"  horiz-adv-x="1440" vert-adv-y="2048"  />

      
      <glyph glyph-name="uni27" unicode="&#x27;" d="M204 1228Q204 1211 192 1199Q180 1187 163 1187Q146 1187 133.50 1199Q121 1211 121 1228L101 1540Q101 1566 119 1584Q137 1602 163 1602Q189 1602 207 1584Q225 1566 225 1540L204 1228Z"  horiz-adv-x="320" vert-adv-y="2048"  />

      
      <glyph glyph-name="uni28" unicode="&#x28;" d="M345 1565Q351 1579 360 1588Q378 1606 405 1606Q430 1606 447 1589.50Q464 1573 465 1549Q464 1530 454 1509Q219 1035 219 564Q219 324 278.50 88Q338-148 456-386Q466-405 466-422Q466-446 448-463Q430-480 405-480Q379-480 361-462Q352-451 344-437Q220-184 159.50 65Q99 314 99 565Q99 816 159.50 1064Q220 1312 345 1565Z"  horiz-adv-x="560" vert-adv-y="2048"  />

      
      <glyph glyph-name="uni29" unicode="&#x29;" d="M219 1565Q344 1312 405 1064Q466 816 466 565Q466 314 405 65Q344-184 220-437Q212-451 203-462Q186-480 160-480Q134-480 116.50-463Q99-446 99-422Q99-405 109-386Q227-148 286 88Q345 324 345 564Q345 1035 111 1509Q101 1530 100 1549Q101 1573 117.50 1589.50Q134 1606 160 1606Q187 1606 204 1588Q213 1579 219 1565Z"  horiz-adv-x="560" vert-adv-y="2048"  />

      
      <glyph glyph-name="uni2a" unicode="&#x2a;" d="M424 1289L586 1149Q595 1142 601 1133Q607 1125 611 1114Q615 1103 615 1095Q615 1081 608.50 1068Q602 1055 591 1046Q571 1032 543 1033Q518 1036 503 1056Q497 1064 492 1074L399 1269L304 1075Q299 1063 292 1054Q276 1032 244 1032Q222 1033 206 1046Q183 1064 183 1095Q183 1117 196 1133L212 1149L374 1288L166 1310Q152 1311 143 1315Q118 1326 108 1346Q102 1360 102 1374Q103 1385 106 1394Q114 1419 137 1429.50Q160 1440 183 1432Q196 1427 204 1421L381 1318L339 1518Q336 1528 336 1540Q336 1566 354 1584Q372 1602 398 1602Q424 1602 442 1584Q460 1566 460 1540Q460 1528 457 1518L413 1317L593 1422Q603 1428 612 1432Q637 1440 660 1429.50Q683 1419 692 1394Q696 1383 696 1373Q696 1358 690 1346Q679 1322 655 1315Q645 1311 632 1310L424 1289Z"  horiz-adv-x="780" vert-adv-y="2048"  />

      
      <glyph glyph-name="uni2b" unicode="&#x2b;" d="M494 1224Q494 1250 512 1268Q530 1286 556 1286Q582 1286 600.50 1268Q619 1250 619 1224L619 871L971 871Q997 871 1015 853Q1033 835 1033 809Q1033 783 1015 765Q997 747 971 747L619 747L619 394Q619 368 600.50 350Q582 332 556 332Q530 332 512 350Q494 368 494 394L494 747L142 747Q116 747 97.50 765Q79 783 79 809Q79 835 97.50 853Q116 871 142 871L494 871L494 1224Z"  horiz-adv-x="1120" vert-adv-y="2048"  />

      
      <glyph glyph-name="uni2c" unicode="&#x2c;" d="M130 30Q100 60 100 104Q100 148 130 177Q160 207 204 207Q248 207 277 177Q307 148 307 104Q307-94 220-226Q206-249 183-249Q166-249 153.50-236.50Q141-224 141-207Q142-191 153-178Q190-137 190-91Q190-63 175.50-32.50Q161-2 130 30Z"  horiz-adv-x="400" vert-adv-y="2048"  />

      
      <glyph glyph-name="uni2d" unicode="&#x2d;" d="M142 498Q116 498 97.50 516Q79 534 79 560Q79 586 97.50 604Q116 622 142 622L639 622Q665 622 683.50 604Q702 586 702 560Q702 534 683.50 516Q665 498 639 498L142 498Z"  horiz-adv-x="800" vert-adv-y="2048"  />

      
      <glyph glyph-name="uniad" unicode="&#xad;" d="M142 498Q116 498 97.50 516Q79 534 79 560Q79 586 97.50 604Q116 622 142 622L639 622Q665 622 683.50 604Q702 586 702 560Q702 534 683.50 516Q665 498 639 498L142 498Z"  horiz-adv-x="800" vert-adv-y="2048"  />

      
      <glyph glyph-name="uni2e" unicode="&#x2e;" d="M307 104Q307 60 277 30Q248 0 204 0Q160 0 130 30Q100 60 100 104Q100 148 130 177Q160 207 204 207Q248 207 277 177Q307 148 307 104Z"  horiz-adv-x="400" vert-adv-y="2048"  />

      
      <glyph glyph-name="uni2f" unicode="&#x2f;" d="M763 1601Q782 1618 808 1618Q834 1618 852 1600Q870 1582 870 1556Q870 1541 864 1528L200-132Q196-142 190-148Q170-166 144-166Q118-166 100-148Q82-130 82-104Q82-88 87-77L752 1584Q756 1594 763 1601Z"  horiz-adv-x="960" vert-adv-y="2048"  />

      
      <glyph glyph-name="uni30" unicode="&#x30;" d="M80 803Q80 1041 132 1215Q184 1389 278 1491Q335 1544 406 1574.50Q477 1605 557 1605Q638 1605 708.50 1574.50Q779 1544 836 1491Q931 1389 982.50 1215Q1034 1041 1034 803Q1034 564 982.50 390Q931 216 836 114Q779 61 708.50 30.50Q638 0 557 0Q477 0 406 30.50Q335 61 278 114Q184 216 132 390Q80 564 80 803M557 1481Q445 1481 366 1401Q205 1221 205 803Q205 383 366 202Q444 123 557 123Q668 123 748 202Q910 384 910 803Q910 1220 748 1401Q667 1481 557 1481Z"  horiz-adv-x="1120" vert-adv-y="2048"  />

      
      <glyph glyph-name="uni31" unicode="&#x31;" d="M453 62Q453 36 435 18Q417 0 391 0Q365 0 346.50 18Q328 36 328 62L328 1452L167 1400Q152 1394 142 1394Q116 1394 98 1412.50Q80 1431 80 1457Q80 1483 98 1501Q106 1509 118 1515L367 1598Q381 1602 391 1602Q417 1602 435 1584Q453 1566 453 1540L453 62Z"  horiz-adv-x="560" vert-adv-y="2048"  />

      
      <glyph glyph-name="uni32" unicode="&#x32;" d="M972 124Q998 124 1016 106Q1034 88 1034 62Q1034 36 1016 18Q998 0 972 0L143 0Q117 0 98.50 18Q80 36 80 62Q80 86 99 107L807 876Q856 927 883 990.50Q910 1054 910 1125Q910 1271 806 1374Q704 1477 557 1477Q411 1477 307 1374Q205 1270 205 1125Q205 1099 187 1081Q169 1063 143 1063Q117 1063 98.50 1081Q80 1099 80 1125Q80 1321 219 1462Q361 1602 557 1602Q756 1602 894 1462Q1034 1323 1034 1125Q1034 926 893 786L284 124L972 124Z"  horiz-adv-x="1120" vert-adv-y="2048"  />

      
      <glyph glyph-name="uni33" unicode="&#x33;" d="M557 822Q531 822 513 839.50Q495 857 495 883Q495 909 513 927Q531 945 557 945Q668 945 747 1023Q827 1102 827 1212Q827 1322 747 1399Q667 1478 557 1478Q445 1478 367 1399Q288 1322 288 1212Q288 1186 270 1168Q252 1150 226 1150Q200 1150 181.50 1168Q163 1186 163 1212Q163 1294 192 1362.50Q221 1431 278 1488Q336 1545 405 1573.50Q474 1602 557 1602Q721 1602 836 1488Q951 1374 951 1212Q951 1041 786 889Q821 868 848 847.50Q875 827 895 807Q1034 669 1034 472Q1034 275 894 138Q755 0 557 0Q361 0 219 138Q80 277 80 472Q80 498 98.50 516Q117 534 143 534Q169 534 187 516Q205 498 205 472Q205 330 307 225Q361 174 422.50 148.50Q484 123 557 123Q703 123 806 225Q910 328 910 472Q910 617 806 719Q704 822 557 822Z"  horiz-adv-x="1120" vert-adv-y="2048"  />

      
      <glyph glyph-name="uni34" unicode="&#x34;" d="M827 522L827 1338L262 522L827 522M142 398Q116 398 98 416Q80 434 80 460Q80 480 91 496L838 1576Q855 1601 889 1601Q915 1601 933 1583Q951 1565 951 1539L951 522L1138 522Q1164 522 1182 504Q1200 486 1200 460Q1200 434 1182 416Q1164 398 1138 398L951 398L951 62Q951 36 933 18Q915 0 889 0Q863 0 845 18Q827 36 827 62L827 398L142 398Z"  horiz-adv-x="1280" vert-adv-y="2048"  />

      
      <glyph glyph-name="uni35" unicode="&#x35;" d="M971 1602Q997 1602 1015.50 1584Q1034 1566 1034 1540Q1034 1514 1015.50 1495.50Q997 1477 971 1477L287 1477L287 1037L598 1037Q814 1037 964 885Q1117 733 1117 519Q1117 304 964 151Q813 0 598 0Q385 0 231 151Q80 303 80 519Q80 545 98 563Q116 581 142 581Q168 581 186 563Q204 545 204 519Q204 355 319 240Q438 124 598 124Q760 124 876 240Q992 355 992 519Q992 683 876 796Q760 913 598 913L225 913Q199 913 181 931Q163 949 163 975L163 1540Q163 1566 181 1584Q199 1602 225 1602L971 1602Z"  horiz-adv-x="1200" vert-adv-y="2048"  />

      
      <glyph glyph-name="uni36" unicode="&#x36;" d="M424 939Q496 954 557 954Q756 954 894 814Q1034 677 1034 477Q1034 278 894 139Q755 0 557 0Q361 0 219 139Q80 280 80 477Q80 622 157 737L666 1566Q672 1576 678 1583Q696 1601 723 1601Q749 1601 767.50 1583Q786 1565 786 1539Q786 1522 777 1506L424 939M910 477Q910 623 806 726Q704 830 557 830Q413 830 307 726Q205 622 205 477Q205 333 307 227Q361 176 422.50 150Q484 124 557 124Q703 124 806 227Q910 331 910 477Z"  horiz-adv-x="1120" vert-adv-y="2048"  />

      
      <glyph glyph-name="uni37" unicode="&#x37;" d="M188 19Q169 0 143 0Q117 0 98.50 18Q80 36 80 62Q80 80 95 104L867 1477L143 1477Q117 1477 98.50 1495.50Q80 1514 80 1540Q80 1566 98.50 1584Q117 1602 143 1602L972 1602Q998 1602 1016 1584Q1034 1566 1034 1540Q1034 1521 1025 1505L200 36Q194 25 188 19Z"  horiz-adv-x="1120" vert-adv-y="2048"  />

      
      <glyph glyph-name="uni38" unicode="&#x38;" d="M557 1478Q445 1478 367 1399Q288 1322 288 1212Q288 1101 367 1023Q445 945 557 945Q668 945 747 1023Q827 1102 827 1212Q827 1322 747 1399Q667 1478 557 1478M557 822Q413 822 307 719Q205 616 205 472Q205 330 307 225Q416 123 557 123Q703 123 806 225Q910 328 910 472Q910 617 806 719Q704 822 557 822M331 892Q300 915 278 936Q163 1050 163 1212Q163 1294 192 1362.50Q221 1431 278 1488Q336 1545 405 1573.50Q474 1602 557 1602Q721 1602 836 1488Q951 1374 951 1212Q951 1049 836 936Q818 919 787 892Q821 868 848 847.50Q875 827 895 807Q1034 669 1034 472Q1034 275 894 138Q755 0 557 0Q361 0 219 138Q80 277 80 472Q80 668 220 807Q261 848 331 892Z"  horiz-adv-x="1120" vert-adv-y="2048"  />

      
      <glyph glyph-name="uni39" unicode="&#x39;" d="M691 662Q627 647 557 647Q359 647 219 786Q80 927 80 1124Q80 1320 219 1461Q361 1601 557 1601Q756 1601 894 1461Q1034 1322 1034 1124Q1034 979 958 862L448 35Q443 26 436 19Q418 0 391 0Q365 0 347 18Q329 36 329 62Q329 78 338 94L691 662M205 1124Q205 979 307 874Q413 771 557 771Q704 771 806 874Q910 977 910 1124Q910 1270 806 1373Q704 1476 557 1476Q411 1476 307 1373Q205 1269 205 1124Z"  horiz-adv-x="1120" vert-adv-y="2048"  />

      
      <glyph glyph-name="uni3a" unicode="&#x3a;" d="M307 104Q307 60 277 30Q248 0 204 0Q160 0 130 30Q100 60 100 104Q100 148 130 177Q160 207 204 207Q248 207 277 177Q307 148 307 104M307 1017Q307 972 277 944Q248 914 204 914Q160 914 130 944Q100 972 100 1017Q100 1061 130 1091Q160 1121 204 1121Q248 1121 277 1091Q307 1061 307 1017Z"  horiz-adv-x="400" vert-adv-y="2048"  />

      
      <glyph glyph-name="uni3b" unicode="&#x3b;" d="M307 1017Q307 972 277 944Q248 914 204 914Q160 914 130 944Q100 972 100 1017Q100 1061 130 1091Q160 1121 204 1121Q248 1121 277 1091Q307 1061 307 1017M130 30Q100 60 100 104Q100 148 130 177Q160 207 204 207Q248 207 277 177Q307 148 307 104Q307-93 220-225Q205-249 183-249Q166-249 153.50-236.50Q141-224 141-207Q141-191 153-178Q190-137 190-91Q190-63 175.50-32.50Q161-2 130 30Z"  horiz-adv-x="400" vert-adv-y="2048"  />

      
      <glyph glyph-name="uni037E" unicode="&#x037E;" d="M307 1017Q307 972 277 944Q248 914 204 914Q160 914 130 944Q100 972 100 1017Q100 1061 130 1091Q160 1121 204 1121Q248 1121 277 1091Q307 1061 307 1017M130 30Q100 60 100 104Q100 148 130 177Q160 207 204 207Q248 207 277 177Q307 148 307 104Q307-93 220-225Q205-249 183-249Q166-249 153.50-236.50Q141-224 141-207Q141-191 153-178Q190-137 190-91Q190-63 175.50-32.50Q161-2 130 30Z"  horiz-adv-x="400" vert-adv-y="2048"  />

      
      <glyph glyph-name="uni3c" unicode="&#x3c;" d="M940 1279Q954 1286 971 1286Q997 1286 1015 1268Q1033 1250 1033 1224Q1033 1190 1000 1169L1001 1169L262 726L1001 283Q1033 262 1033 228Q1033 202 1015 184Q997 166 971 166Q951 166 940 173L115 669Q79 692 79 726Q79 758 115 783L940 1279Z"  horiz-adv-x="1120" vert-adv-y="2048"  />

      
      <glyph glyph-name="uni3d" unicode="&#x3d;" d="M143 913Q117 913 99 931Q81 949 81 975Q81 1001 99 1019Q117 1037 143 1037L890 1037Q916 1037 934 1019Q952 1001 952 975Q952 949 934 931Q916 913 890 913L143 913M890 539Q916 539 934 521Q952 503 952 477Q952 451 934 433Q916 415 890 415L143 414Q117 415 99 433Q81 451 81 477Q81 503 99 521Q117 539 143 539L890 539Z"  horiz-adv-x="1040" vert-adv-y="2048"  />

      
      <glyph glyph-name="uni3e" unicode="&#x3e;" d="M998 783Q1034 758 1034 726Q1034 692 998 669L173 173Q162 166 142 166Q116 166 98 184Q80 202 80 228Q80 262 112 283L851 726L112 1169L113 1169Q80 1190 80 1224Q80 1250 98 1268Q116 1286 142 1286Q159 1286 173 1279L998 783Z"  horiz-adv-x="1120" vert-adv-y="2048"  />

      
      <glyph glyph-name="uni3f" unicode="&#x3f;" d="M205 1127Q205 1101 187 1083.50Q169 1066 143 1066Q117 1066 98.50 1083.50Q80 1101 80 1127Q80 1322 219 1463Q361 1602 557 1602Q756 1602 894 1463Q1034 1324 1034 1127Q1034 929 894 791L894 792L723 633Q620 530 620 384Q620 358 601.50 340Q583 322 557 322Q531 322 513 340Q495 358 495 384Q495 581 635 720L635 719L806 877Q910 980 910 1127Q910 1273 806 1375Q704 1478 557 1478Q411 1478 307 1375Q205 1272 205 1127M661 104Q661 60 631 30Q601 0 557 0Q512 0 484 30Q454 60 454 104Q454 148 484 177Q512 207 557 207Q601 207 631 177Q661 148 661 104Z"  horiz-adv-x="1120" vert-adv-y="2048"  />

      
      <glyph glyph-name="uni40" unicode="&#x40;" d="M1123 991Q946 991 820 865Q694 739 694 562Q694 385 820 259Q946 133 1123 133Q1300 133 1426 259Q1551 384 1551 562Q1551 740 1426 865Q1300 991 1123 991M1551 219Q1536 196 1512 173Q1351 12 1123 12Q893 12 734 173Q573 334 573 562Q573 790 734 951Q893 1112 1123 1112Q1351 1112 1512 951Q1673 790 1673 562L1673 154Q1673 52 1775 52Q2040 52 2040 562Q2040 944 1771 1211Q1505 1479 1123 1479Q743 1479 473 1211Q205 940 205 562Q205 184 473-87Q743-355 1123-355Q1225-355 1318.50-335.50Q1412-316 1500-276Q1516-269 1533-269Q1558-269 1576-286.50Q1594-304 1594-330Q1594-357 1576-373Q1566-383 1554-389Q1360-478 1123-478Q691-478 387-173Q83 131 83 562Q83 992 387 1297Q691 1602 1123 1602Q1553 1602 1857 1297Q2163 992 2163 562Q2163-70 1775-70Q1551-70 1551 154L1551 219Z"  horiz-adv-x="2240" vert-adv-y="2048"  />

      
      <glyph glyph-name="uni41" unicode="&#x41;" d="M408 574L199 38Q193 24 185 16Q168 0 142 0Q116 0 98 18Q80 36 80 62Q80 75 86 89L657 1556Q663 1572 673 1583Q690 1600 716 1600Q742 1600 760 1582Q770 1572 776 1556L1346 89Q1352 75 1352 62Q1352 36 1334 18Q1316 0 1291 0Q1265 0 1248 15Q1239 24 1233 38L1025 574L408 574M977 697L716 1369L456 697L977 697Z"  horiz-adv-x="1440" vert-adv-y="2048"  />

      
      <glyph glyph-name="uni42" unicode="&#x42;" d="M203 1477L203 944L470 944Q581 944 658 1022Q737 1101 737 1210Q737 1319 658 1398Q579 1477 470 1477L203 1477M203 821L203 123L552 123Q697 123 798 225Q901 327 901 472Q901 616 798 718Q698 821 552 821L203 821M470 1600Q632 1600 746 1486Q860 1372 860 1210Q860 1048 726 914Q826 866 887 806Q1024 667 1024 472Q1024 276 886 137Q747 0 552 0L142 0Q116 0 98 18Q80 36 80 62L80 1538Q80 1564 98 1582Q116 1600 142 1600L470 1600Z"  horiz-adv-x="1120" vert-adv-y="2048"  />

      
      <glyph glyph-name="uni43" unicode="&#x43;" d="M1337 281Q1363 281 1381 263Q1399 245 1399 219Q1399 194 1384 178Q1272 91 1146 45.50Q1020 0 880 0Q717 0 574 61Q431 122 314 234Q202 351 141 494Q80 637 80 800Q80 1131 314 1365Q549 1600 880 1600Q1165 1600 1387 1418Q1405 1400 1405 1374Q1405 1349 1387 1331Q1369 1313 1344 1313Q1318 1313 1293 1337Q1120 1477 880 1477Q600 1477 401 1278Q203 1080 203 800Q203 519 401 321Q599 123 880 123Q1122 123 1304 272Q1317 281 1337 281Z"  horiz-adv-x="1480" vert-adv-y="2048"  />

      
      <glyph glyph-name="uni44" unicode="&#x44;" d="M470 123Q748 123 948 321Q1147 520 1147 800Q1147 1079 948 1278Q747 1477 470 1477L203 1477L203 123L470 123M470 1600Q801 1600 1035 1365Q1270 1131 1270 800Q1270 469 1035 234Q801 0 470 0L141 0Q116 0 98 18Q80 36 80 62L80 1538Q80 1564 98 1582Q116 1600 141 1600L470 1600Z"  horiz-adv-x="1360" vert-adv-y="2048"  />

      
      <glyph glyph-name="uni45" unicode="&#x45;" d="M1127 1600Q1152 1600 1170 1582Q1188 1564 1188 1538Q1188 1513 1170 1495Q1152 1477 1127 1477L203 1477L203 862L880 862Q906 862 924 844Q942 826 942 800Q942 774 924 756Q906 738 880 738L203 738L203 123L1127 123Q1152 123 1170 105Q1188 87 1188 62Q1188 36 1170 18Q1152 0 1127 0L142 0Q116 0 98 18Q80 36 80 62L80 1538Q80 1564 98 1582Q116 1600 142 1600L1127 1600Z"  horiz-adv-x="1280" vert-adv-y="2048"  />

      
      <glyph glyph-name="uni46" unicode="&#x46;" d="M1127 1600Q1152 1600 1170 1582Q1188 1564 1188 1538Q1188 1513 1170 1495Q1152 1477 1127 1477L203 1477L203 862L880 862Q906 862 924 844Q942 826 942 800Q942 774 924 756Q906 738 880 738L203 738L203 62Q203 36 185.50 18Q168 0 142 0Q116 0 98 18Q80 36 80 62L80 1538Q80 1564 98 1582Q116 1600 142 1600L1127 1600Z"  horiz-adv-x="1280" vert-adv-y="2048"  />

      
      <glyph glyph-name="uni47" unicode="&#x47;" d="M1399 219Q1399 192 1384 178Q1272 91 1146 45.50Q1020 0 880 0Q717 0 574 61Q431 122 314 234Q202 351 141 494Q80 637 80 800Q80 1131 314 1365Q549 1600 880 1600Q1165 1600 1387 1418Q1405 1400 1405 1374Q1405 1349 1387 1331Q1369 1313 1344 1313Q1318 1313 1293 1337Q1120 1477 880 1477Q600 1477 401 1278Q203 1080 203 800Q203 519 401 321Q599 123 880 123Q1100 123 1276 250L1276 656L931 656Q905 656 887.50 674Q870 692 870 718Q870 744 887.50 761.50Q905 779 931 779L1338 779Q1362 779 1382 761Q1399 742 1399 718L1399 219Z"  horiz-adv-x="1500" vert-adv-y="2048"  />

      
      <glyph glyph-name="uni48" unicode="&#x48;" d="M80 1538Q80 1564 98 1582Q116 1600 142 1600Q168 1600 185.50 1582Q203 1564 203 1538L203 862L1065 862L1065 1538Q1065 1564 1083 1582Q1101 1600 1127 1600Q1152 1600 1170 1582Q1188 1564 1188 1538L1188 62Q1188 36 1170 18Q1152 0 1127 0Q1101 0 1083 18Q1065 36 1065 62L1065 738L203 738L203 62Q203 36 185.50 18Q168 0 142 0Q116 0 98 18Q80 36 80 62L80 1538Z"  horiz-adv-x="1280" vert-adv-y="2048"  />

      
      <glyph glyph-name="uni49" unicode="&#x49;" d="M178 1538Q178 1564 195.50 1582Q213 1600 239 1600Q265 1600 283 1582Q301 1564 301 1538L301 62Q301 36 283 18Q265 0 239 0Q213 0 195.50 18Q178 36 178 62L178 1538Z"  horiz-adv-x="480" vert-adv-y="2048"  />

      
      <glyph glyph-name="uni4a" unicode="&#x4a;" d="M80 472Q80 498 98 515.50Q116 533 142 533Q168 533 185.50 515.50Q203 498 203 472Q203 328 305 225Q410 123 552 123Q697 123 798 225Q901 327 901 472L901 1538Q901 1564 919 1582Q937 1600 962 1600Q988 1600 1006 1582Q1024 1564 1024 1538L1024 472Q1024 276 886 137Q747 0 552 0Q357 0 218 137Q80 278 80 472Z"  horiz-adv-x="1120" vert-adv-y="2048"  />

      
      <glyph glyph-name="uni4b" unicode="&#x4b;" d="M80 1538Q80 1564 98 1582Q116 1600 141 1600Q167 1600 185 1582Q203 1564 203 1538L203 786L998 1581Q1017 1600 1044 1600Q1070 1600 1088 1582Q1106 1564 1106 1538Q1106 1515 1088 1494L499 906L1094 98Q1105 82 1106 65Q1106 32 1081 12Q1064 0 1046 0Q1012 0 993 26L410 816L203 609L203 62Q203 36 185 18Q167 0 141 0Q116 0 98 18Q80 36 80 62L80 1538Z"  horiz-adv-x="1200" vert-adv-y="2048"  />

      
      <glyph glyph-name="uni4c" unicode="&#x4c;" d="M80 1538Q80 1564 98 1582Q116 1600 141 1600Q167 1600 185 1582Q203 1564 203 1538L203 123L1044 123Q1070 123 1088 105Q1106 87 1106 62Q1106 36 1088 18Q1070 0 1044 0L141 0Q116 0 98 18Q80 36 80 62L80 1538Z"  horiz-adv-x="1200" vert-adv-y="2048"  />

      
      <glyph glyph-name="uni4d" unicode="&#x4d;" d="M203 1278L203 62Q203 36 185.50 18Q168 0 142 0Q116 0 98 18Q80 36 80 62L80 1538Q80 1564 98 1582Q116 1600 142 1600Q179 1600 196 1568L880 199L1564 1568Q1582 1600 1619 1600Q1645 1600 1662.50 1582Q1680 1564 1680 1538L1680 62Q1680 36 1662.50 18Q1645 0 1619 0Q1593 0 1575 18Q1557 36 1557 62L1557 1278L933 29Q915 0 880 0Q840 0 823 39L203 1278Z"  horiz-adv-x="1760" vert-adv-y="2048"  />

      
      <glyph glyph-name="uni4e" unicode="&#x4e;" d="M203 62Q203 36 185.50 18Q168 0 142 0Q116 0 98 18Q80 36 80 62L80 1538Q80 1564 98 1582Q116 1600 142 1600Q171 1600 189 1578L1229 241L1229 1538Q1229 1564 1247 1582Q1265 1600 1291 1600Q1316 1600 1334 1582Q1352 1564 1352 1538L1352 62Q1352 36 1334 18Q1316 0 1291 0Q1261 0 1245 18L203 1358L203 62Z"  horiz-adv-x="1440" vert-adv-y="2048"  />

      
      <glyph glyph-name="uni4f" unicode="&#x4f;" d="M880 1477Q602 1477 401 1278Q203 1080 203 800Q203 519 401 321Q600 123 880 123Q1160 123 1358 321Q1557 519 1557 800Q1557 1080 1358 1278Q1159 1477 880 1477M1680 800Q1680 469 1445 234Q1212 0 880 0Q717 0 574 61Q431 122 314 234Q202 351 141 494Q80 637 80 800Q80 1131 314 1365Q549 1600 880 1600Q1213 1600 1445 1365Q1680 1131 1680 800Z"  horiz-adv-x="1760" vert-adv-y="2048"  />

      
      <glyph glyph-name="uni50" unicode="&#x50;" d="M203 1477L203 697L469 697Q630 697 744 811Q859 926 859 1087Q859 1248 744 1362Q630 1477 469 1477L203 1477M469 1600Q683 1600 831 1449Q982 1301 982 1087Q982 875 831 724Q681 574 469 574L203 574L203 62Q203 36 185 18Q167 0 141 0Q115 0 97.50 18Q80 36 80 62L80 1538Q80 1564 97.50 1582Q115 1600 141 1600L469 1600Z"  horiz-adv-x="1080" vert-adv-y="2048"  />

      
      <glyph glyph-name="uni51" unicode="&#x51;" d="M1400 192Q1170 0 880 0Q717 0 574 61Q431 122 314 234Q202 351 141 494Q80 637 80 800Q80 1131 314 1365Q549 1600 880 1600Q1213 1600 1445 1365Q1680 1131 1680 800Q1680 508 1488 280L1663 105Q1680 87 1680 62Q1680 36 1662.50 18Q1645 0 1619 0Q1593 0 1574 19L1400 192M1123 469Q1106 487 1106 513Q1106 539 1124 556.50Q1142 574 1167 574Q1192 574 1212 557L1401 367Q1557 562 1557 800Q1557 1080 1358 1278Q1159 1477 880 1477Q602 1477 401 1278Q203 1080 203 800Q203 519 401 321Q600 123 880 123Q1118 123 1313 279L1123 469Z"  horiz-adv-x="1760" vert-adv-y="2048"  />

      
      <glyph glyph-name="uni52" unicode="&#x52;" d="M203 1477L203 779L552 779Q696 779 798 881Q900 983 900 1128Q900 1275 798 1374Q696 1477 552 1477L203 1477M552 1600Q748 1600 885 1462Q1023 1324 1023 1128Q1023 932 886 795Q821 730 726 687L1095 95Q1106 79 1106 62Q1106 36 1088 18Q1070 0 1044 0Q1012 0 990 33L599 658Q578 656 552 656L203 656L203 62Q203 36 185 18Q167 0 141 0Q116 0 98 18Q80 36 80 62L80 1538Q80 1564 98 1582Q116 1600 141 1600L552 1600Z"  horiz-adv-x="1200" vert-adv-y="2048"  />

      
      <glyph glyph-name="uni53" unicode="&#x53;" d="M93 215Q80 232 80 253Q80 279 97.50 297Q115 315 141 315Q174 315 194 287Q207 268 224 247Q269 195 333 160.50Q397 126 493 123Q618 123 716 206Q769 252 804 316.50Q839 381 839 475Q839 601 756 697Q667 794 519 819Q337 853 253 956Q209 1010 185 1073Q161 1136 161 1205Q163 1392 298 1506Q407 1600 552 1600Q720 1600 848 1461Q870 1435 886 1408Q895 1393 895 1374Q895 1349 877 1331Q859 1313 834 1313Q805 1313 793 1329Q777 1351 754 1379Q679 1467 573 1474Q464 1481 378 1410Q292 1338 285 1231Q281 1176 296 1127Q311 1078 347 1036Q413 963 565 935Q749 900 851 777Q904 712 933 636Q962 560 962 479Q960 341 915.50 258.50Q871 176 796 113Q662 0 494 0Q283 0 130 167Q113 186 93 215Z"  horiz-adv-x="1060" vert-adv-y="2048"  />

      
      <glyph glyph-name="uni54" unicode="&#x54;" d="M142 1477Q117 1477 99 1495Q81 1513 81 1538Q81 1564 99 1582Q117 1600 142 1600L1209 1600Q1235 1600 1253 1582Q1271 1564 1271 1538Q1271 1513 1253 1495Q1235 1477 1209 1477L737 1477L737 62Q737 36 719.50 18Q702 0 676 0Q650 0 632 18Q614 36 614 62L614 1477L142 1477Z"  horiz-adv-x="1360" vert-adv-y="2048"  />

      
      <glyph glyph-name="uni55" unicode="&#x55;" d="M81 1538Q81 1564 99 1582Q117 1600 143 1600Q169 1600 186.50 1582Q204 1564 204 1538L204 554Q204 375 331 249Q457 123 635 123Q814 123 940 249Q1066 375 1066 554L1066 1538Q1066 1564 1084 1582Q1102 1600 1128 1600Q1153 1600 1171 1582Q1189 1564 1189 1538L1189 554Q1189 324 1027 162Q865 0 635 0Q405 0 243 162Q162 243 121.50 340.50Q81 438 81 554L81 1538Z"  horiz-adv-x="1280" vert-adv-y="2048"  />

      
      <glyph glyph-name="uni56" unicode="&#x56;" d="M760 18Q742 0 716 0Q689 0 673 18Q667 25 661 38L89 1499Q80 1522 80 1538Q80 1564 98 1582Q116 1600 142 1600Q185 1600 198 1565L716 231L1235 1566Q1247 1600 1291 1600Q1316 1600 1334 1582Q1352 1564 1352 1538Q1352 1521 1343 1499L772 38Q767 25 760 18Z"  horiz-adv-x="1440" vert-adv-y="2048"  />

      
      <glyph glyph-name="uni57" unicode="&#x57;" d="M916 1583Q935 1600 959 1600Q985 1600 1003 1583Q1013 1572 1018 1559L1370 293L1721 1559Q1726 1573 1737 1584Q1754 1600 1780 1600Q1806 1600 1823.50 1582Q1841 1564 1841 1538Q1841 1525 1836 1508L1434 54Q1428 32 1414 18Q1394 0 1370 0Q1344 0 1326 18Q1312 33 1306 53L959 1305L614 54Q607 33 593 18Q574 0 549 0Q524 0 506 18Q491 33 485 53L82 1508Q77 1525 77 1538Q77 1564 95 1582Q113 1600 139 1600Q165 1600 183 1583Q193 1572 197 1559L549 293L901 1560Q904 1571 916 1583Z"  horiz-adv-x="1920" vert-adv-y="2048"  />

      
      <glyph glyph-name="uni58" unicode="&#x58;" d="M716 901L1239 1573Q1262 1600 1291 1600Q1316 1600 1334 1582Q1352 1564 1352 1538Q1352 1518 1342 1503L795 800L1339 101Q1352 85 1352 62Q1352 36 1334 18Q1316 0 1291 0Q1262 0 1244 21L716 698L188 21Q171 0 142 0Q116 0 98 18Q80 36 80 62Q80 84 94 101L637 800L91 1504Q80 1517 80 1538Q80 1564 98 1582Q116 1600 142 1600Q172 1600 193 1573L716 901Z"  horiz-adv-x="1440" vert-adv-y="2048"  />

      
      <glyph glyph-name="uni59" unicode="&#x59;" d="M697 62Q697 36 679 18Q661 0 635 0Q609 0 591.50 18Q574 36 574 62L574 782L91 1504Q81 1520 81 1538Q81 1564 99 1582Q117 1600 143 1600Q173 1600 192 1575L635 911L1078 1575Q1096 1600 1128 1600Q1153 1600 1171 1582Q1189 1564 1189 1538Q1189 1518 1179 1504L697 782L697 62Z"  horiz-adv-x="1280" vert-adv-y="2048"  />

      
      <glyph glyph-name="uni5a" unicode="&#x5a;" d="M142 1477Q116 1477 98 1495Q80 1513 80 1538Q80 1564 98 1582Q116 1600 142 1600L1291 1600Q1316 1600 1334 1582Q1352 1564 1352 1538Q1352 1518 1342 1504L268 123L1291 123Q1316 123 1334 105Q1352 87 1352 62Q1352 36 1334 18Q1316 0 1291 0L142 0Q116 0 98 18Q80 36 80 62Q80 82 94 101L1164 1477L142 1477Z"  horiz-adv-x="1440" vert-adv-y="2048"  />

      
      <glyph glyph-name="uni5b" unicode="&#x5b;" d="M492 1602Q518 1602 536 1584Q554 1566 554 1540Q554 1514 536 1495.50Q518 1477 492 1477L222 1477L222-355L492-355Q518-355 536-373.50Q554-392 554-418Q554-444 536-462Q518-480 492-480L160-480Q134-480 116-462Q98-444 98-418L98 1540Q98 1566 116 1584Q134 1602 160 1602L492 1602Z"  horiz-adv-x="640" vert-adv-y="2048"  />

      
      <glyph glyph-name="uni5c" unicode="&#x5c;" d="M877-77Q883-91 883-104Q883-130 865-148Q847-166 821-166Q795-166 777-150Q769-141 765-132L100 1511Q95 1524 95 1539Q95 1565 113 1583Q131 1601 157 1601Q183 1601 202 1583Q210 1575 213 1567L877-77Z"  horiz-adv-x="960" vert-adv-y="2048"  />

      
      <glyph glyph-name="uni5d" unicode="&#x5d;" d="M554-418Q554-444 536-462Q518-480 492-480L160-480Q134-480 116-462Q98-444 98-418Q98-392 116-373.50Q134-355 160-355L430-355L430 1477L160 1477Q134 1477 116 1495.50Q98 1514 98 1540Q98 1566 116 1584Q134 1602 160 1602L492 1602Q518 1602 536 1584Q554 1566 554 1540L554-418Z"  horiz-adv-x="640" vert-adv-y="2048"  />

      
      <glyph glyph-name="uni5e" unicode="&#x5e;" d="M489 1428L206 1002Q187 980 157 980Q131 980 113 998Q95 1016 95 1042Q95 1060 103 1074L439 1577Q448 1588 460 1595Q472 1602 489 1602Q506 1602 518 1595Q530 1588 539 1577L875 1074Q883 1060 883 1042Q883 1016 865 998Q847 980 821 980Q789 980 772 1002L489 1428Z"  horiz-adv-x="960" vert-adv-y="2048"  />

      
      <glyph glyph-name="uni5f" unicode="&#x5f;" d="M-9-126Q-35-126-53-108Q-71-90-71-64Q-71-38-53-19.50Q-35-1-9-1L987-1Q1013-1 1031-19.50Q1049-38 1049-64Q1049-90 1031-108Q1013-126 987-126L-9-126Z"  horiz-adv-x="960" vert-adv-y="2048"  />

      
      <glyph glyph-name="uni60" unicode="&#x60;" d="M99 1539Q99 1565 117 1583Q135 1601 161 1601Q187 1601 205 1583L457 1331Q472 1314 472 1290Q472 1264 454 1245.50Q436 1227 410 1227Q386 1227 367 1243L115 1495Q107 1504 103 1515.50Q99 1527 99 1539Z"  horiz-adv-x="560" vert-adv-y="2048"  />

      
      <glyph glyph-name="uni61" unicode="&#x61;" d="M640 996Q460 996 332 868Q204 740 204 560Q204 380 332 252Q460 124 640 124Q820 124 948 252Q1075 379 1075 560Q1075 741 948 868Q820 996 640 996M1075 203Q873 0 640 0Q408 0 244 164Q80 328 80 560Q80 792 244 956Q408 1120 640 1120Q872 1120 1036 956Q1200 792 1200 560L1200 62Q1200 36 1182 18Q1164 0 1138 0Q1112 0 1093.50 18Q1075 36 1075 62L1075 203Z"  horiz-adv-x="1280" vert-adv-y="2048"  />

      
      <glyph glyph-name="uni62" unicode="&#x62;" d="M640 124Q820 124 948 252Q1075 379 1075 560Q1075 741 948 868Q820 996 640 996Q460 996 332 868Q204 740 204 560Q204 380 332 252Q460 124 640 124M204 917L244 956Q408 1120 640 1120Q872 1120 1036 956Q1200 792 1200 560Q1200 328 1036 164Q872 0 640 0Q408 0 244 164Q80 328 80 560L80 1538Q80 1564 98 1582Q116 1600 142 1600Q168 1600 186 1582Q204 1564 204 1538L204 917Z"  horiz-adv-x="1280" vert-adv-y="2048"  />

      
      <glyph glyph-name="uni63" unicode="&#x63;" d="M962 243Q988 243 1006 224.50Q1024 206 1024 180Q1024 154 1005 135Q929 70 836 35Q743 0 640 0Q408 0 244 164Q80 328 80 560Q80 792 244 956Q408 1120 640 1120Q743 1120 836.50 1085Q930 1050 1005 985Q1014 976 1020.50 963Q1027 950 1027 936Q1027 910 1009 892Q991 874 965 874Q941 874 925 889Q803 996 640 996Q460 996 332 868Q205 741 205 560Q205 379 332 252Q460 124 640 124Q719 124 792.50 153Q866 182 925 231Q940 243 962 243Z"  horiz-adv-x="1120" vert-adv-y="2048"  />

      
      <glyph glyph-name="uni64" unicode="&#x64;" d="M1075 560Q1075 741 948 868Q820 996 640 996Q460 996 332 868Q204 740 204 560Q204 380 332 252Q460 124 640 124Q820 124 948 252Q1075 379 1075 560M1075 1538Q1075 1564 1093.50 1582Q1112 1600 1138 1600Q1164 1600 1182 1582Q1200 1564 1200 1538L1200 560Q1200 328 1036 164Q872 0 640 0Q408 0 244 164Q80 328 80 560Q80 792 244 956Q408 1120 640 1120Q872 1120 1036 956L1075 917L1075 1538Z"  horiz-adv-x="1280" vert-adv-y="2048"  />

      
      <glyph glyph-name="uni65" unicode="&#x65;" d="M1073 622Q1045 771 948 868Q820 996 640 996Q460 996 332 868Q236 772 206 622L1073 622M959 241Q985 241 1003 222.50Q1021 204 1021 178Q1021 152 1005 135Q849 0 640 0Q408 0 244 164Q80 328 80 560Q80 792 244 956Q408 1120 640 1120Q872 1120 1036 956Q1200 792 1200 560Q1200 534 1182 516Q1164 498 1138 498L206 498Q236 348 332 252Q460 124 640 124Q722 124 792 150.50Q862 177 920 227Q937 241 959 241Z"  horiz-adv-x="1280" vert-adv-y="2048"  />

      
      <glyph glyph-name="uni66" unicode="&#x66;" d="M727 1600Q753 1600 771 1582Q789 1564 789 1538Q789 1512 771 1493.50Q753 1475 727 1475Q374 1475 374 1123L374 1058L645 1058Q671 1058 689 1040Q707 1022 707 996Q707 970 689 951.50Q671 933 645 933L374 933L374 62Q374 36 356 18Q338 0 312 0Q286 0 267.50 18Q249 36 249 62L249 933L146 933Q120 933 102 951.50Q84 970 84 996Q84 1022 102 1040Q120 1058 146 1058L249 1058L249 1123Q249 1600 727 1600Z"  horiz-adv-x="800" vert-adv-y="2048"  />

      
      <glyph glyph-name="uni67" unicode="&#x67;" d="M640 996Q460 996 332 869Q204 741 204 561Q204 382 332 254Q460 126 640 126Q820 126 948 254Q1075 381 1075 561Q1075 742 948 869Q820 996 640 996M1075 205Q892 3 640 3Q408 3 244 166Q80 330 80 561Q80 793 244 956Q408 1120 640 1120Q872 1120 1036 956Q1200 793 1200 561L1200-5Q1200-177 1075-304Q899-480 649-480Q399-480 224-304Q159-242 119-169Q108-150 108-132Q108-106 126-88Q144-70 170-70Q196-70 215-89Q223-96 229-108Q263-168 312-217Q382-287 466.50-321.50Q551-356 649-356Q847-356 987-216Q1075-110 1075-5L1075 205Z"  horiz-adv-x="1280" vert-adv-y="2048"  />

      
      <glyph glyph-name="uni68" unicode="&#x68;" d="M81 1540Q81 1566 99 1584Q117 1602 143 1602Q169 1602 187 1584Q205 1566 205 1540L205 942Q389 1120 599 1120Q815 1120 965 968Q1118 816 1118 601L1118 62Q1118 36 1099.50 18Q1081 0 1055 0Q1029 0 1011 18Q993 36 993 62L993 601Q993 766 877 879Q761 996 599 996Q437 996 320 879Q205 765 205 601L205 62Q205 36 187 18Q169 0 143 0Q117 0 99 18Q81 36 81 62L81 1540Z"  horiz-adv-x="1200" vert-adv-y="2048"  />

      
      <glyph glyph-name="uni69" unicode="&#x69;" d="M315 1390Q315 1355 291 1331Q267 1307 232 1307Q198 1307 173.50 1331Q149 1355 149 1390Q149 1424 173.50 1448.50Q198 1473 232 1473Q267 1473 291 1448.50Q315 1424 315 1390M170 1058Q170 1084 188 1102Q206 1120 232 1120Q258 1120 276.50 1102Q295 1084 295 1058L295 62Q295 36 276.50 18Q258 0 232 0Q206 0 188 18Q170 36 170 62L170 1058Z"  horiz-adv-x="480" vert-adv-y="2048"  />

      
      <glyph glyph-name="uni6a" unicode="&#x6a;" d="M563 1390Q563 1355 539 1331Q515 1307 480 1307Q446 1307 421.50 1331Q397 1355 397 1390Q397 1424 421.50 1448.50Q446 1473 480 1473Q515 1473 539 1448.50Q563 1424 563 1390M418 1058Q418 1084 436 1102Q454 1120 480 1120Q506 1120 524.50 1102Q543 1084 543 1058L543-3Q543-200 403-340Q263-480 66-480Q40-480 21.50-462Q3-444 3-418Q3-392 21.50-373.50Q40-355 66-355Q212-355 314-252Q418-149 418-3L418 1058Z"  horiz-adv-x="656" vert-adv-y="2048"  />

      
      <glyph glyph-name="uni6b" unicode="&#x6b;" d="M206 634L940 1111Q954 1120 973 1120Q999 1120 1017 1102Q1035 1084 1035 1058Q1035 1026 1015 1011L509 680L1018 106Q1035 88 1035 62Q1035 36 1017 18Q999 0 973 0Q947 0 928 20L401 612L206 485L206 62Q206 36 188 18Q170 0 144 0Q118 0 99.50 18Q81 36 81 62L81 1540Q81 1566 99.50 1584Q118 1602 144 1602Q170 1602 188 1584Q206 1566 206 1540L206 634Z"  horiz-adv-x="1120" vert-adv-y="2048"  />

      
      <glyph glyph-name="uni6c" unicode="&#x6c;" d="M87 1540Q87 1566 105 1584Q123 1602 149 1602Q175 1602 193.50 1584Q212 1566 212 1540L212 124L315 124Q341 124 359.50 106Q378 88 378 62Q378 36 359.50 18Q341 0 315 0L149 0Q123 0 105 18Q87 36 87 62L87 1540Z"  horiz-adv-x="480" vert-adv-y="2048"  />

      
      <glyph glyph-name="uni6d" unicode="&#x6d;" d="M200 62Q200 36 182 18Q164 0 138 0Q112 0 93.50 18Q75 36 75 62L75 1058Q75 1084 93.50 1102Q112 1120 138 1120Q164 1120 182 1102Q200 1084 200 1058L200 991Q352 1120 511 1120Q691 1120 819 992Q850 960 884 914Q918 960 950 992Q1078 1120 1258 1120Q1438 1120 1566 992Q1693 865 1693 684L1693 62Q1693 36 1675 18Q1657 0 1631 0Q1605 0 1587 18Q1569 36 1569 62L1569 684Q1569 813 1477 904Q1385 996 1258 996Q1130 996 1038 904Q947 813 947 684L947 62Q947 36 928.50 18Q910 0 884 0Q858 0 840 18Q822 36 822 62L822 684Q822 813 731 904Q639 996 511 996Q383 996 291 904Q200 813 200 684L200 62Z"  horiz-adv-x="1760" vert-adv-y="2048"  />

      
      <glyph glyph-name="uni6e" unicode="&#x6e;" d="M81 1058Q81 1084 99 1102Q117 1120 143 1120Q169 1120 187 1102Q205 1084 205 1058L205 942Q389 1120 599 1120Q815 1120 965 968Q1118 816 1118 601L1118 62Q1118 36 1099.50 18Q1081 0 1055 0Q1029 0 1011 18Q993 36 993 62L993 601Q993 766 877 879Q761 996 599 996Q437 996 320 879Q205 765 205 601L205 62Q205 36 187 18Q169 0 143 0Q117 0 99 18Q81 36 81 62L81 1058Z"  horiz-adv-x="1200" vert-adv-y="2048"  />

      
      <glyph glyph-name="uni6f" unicode="&#x6f;" d="M1200 560Q1200 328 1036 164Q872 0 640 0Q408 0 244 164Q80 328 80 560Q80 792 244 956Q408 1120 640 1120Q872 1120 1036 956Q1200 792 1200 560M640 996Q460 996 332 868Q204 740 204 560Q204 380 332 252Q460 124 640 124Q820 124 948 252Q1075 379 1075 560Q1075 741 948 868Q820 996 640 996Z"  horiz-adv-x="1280" vert-adv-y="2048"  />

      
      <glyph glyph-name="uni70" unicode="&#x70;" d="M204 560Q204 380 332 252Q460 124 640 124Q820 124 948 252Q1075 379 1075 560Q1075 741 948 868Q820 996 640 996Q460 996 332 868Q204 740 204 560M204-418Q204-444 186-462Q168-480 142-480Q116-480 98-462Q80-444 80-418L80 560Q80 792 244 956Q408 1120 640 1120Q872 1120 1036 956Q1200 792 1200 560Q1200 328 1036 164Q872 0 640 0Q408 0 244 164L204 203L204-418Z"  horiz-adv-x="1280" vert-adv-y="2048"  />

      
      <glyph glyph-name="uni71" unicode="&#x71;" d="M640 996Q460 996 332 868Q204 740 204 560Q204 380 332 252Q460 124 640 124Q820 124 948 252Q1075 379 1075 560Q1075 741 948 868Q820 996 640 996M1075 203L1036 164Q872 0 640 0Q408 0 244 164Q80 328 80 560Q80 792 244 956Q408 1120 640 1120Q872 1120 1036 956Q1200 792 1200 560L1200-418Q1200-444 1182-462Q1164-480 1138-480Q1112-480 1093.50-462Q1075-444 1075-418L1075 203Z"  horiz-adv-x="1280" vert-adv-y="2048"  />

      
      <glyph glyph-name="uni72" unicode="&#x72;" d="M83 1058Q83 1084 101 1102Q119 1120 145 1120Q171 1120 189 1102Q207 1084 207 1058L207 917Q410 1120 643 1120Q768 1120 857 1081Q873 1075 886 1062Q903 1045 903 1018Q903 992 885 974Q867 956 841 956Q825 956 813 962Q743 996 643 996Q463 996 335 868Q207 741 207 560L207 62Q207 36 189 18Q171 0 145 0Q119 0 101 18Q83 36 83 62L83 1058Z"  horiz-adv-x="960" vert-adv-y="2048"  />

      
      <glyph glyph-name="uni73" unicode="&#x73;" d="M273 580L274 580Q228 597 197 613.50Q166 630 149 648Q82 717 82 809Q82 902 152 974Q296 1120 528 1120Q652 1120 761 1067.50Q870 1015 958 919Q969 905 969 884Q969 858 950.50 839.50Q932 821 906 821Q881 821 867 837L836 868Q708 996 528 996Q347 996 237 880Q207 845 207 794Q209 764 225 742Q241 720 272 709L783 540L782 540Q828 523 859 506.50Q890 490 906 472Q974 404 974 311Q974 217 903 146Q760 0 528 0Q277 0 98 200Q87 215 87 236Q87 262 105 280.50Q123 299 149 299Q173 299 189 283L220 252Q348 124 528 124Q708 124 817 239Q848 274 848 325Q843 389 783 411L273 580Z"  horiz-adv-x="1060" vert-adv-y="2048"  />

      
      <glyph glyph-name="uni74" unicode="&#x74;" d="M644 124Q670 124 688.50 106Q707 88 707 62Q707 36 688.50 18Q670 0 644 0Q250 0 250 394L250 996L147 996Q121 996 102.50 1014Q84 1032 84 1058Q84 1084 102.50 1102Q121 1120 147 1120L250 1120L250 1539Q250 1565 268 1583Q286 1601 312 1601Q338 1601 356.50 1583Q375 1565 375 1539L375 1120L562 1120Q588 1120 606.50 1102Q625 1084 625 1058Q625 1032 606.50 1014Q588 996 562 996L375 996L375 394Q375 124 644 124Z"  horiz-adv-x="800" vert-adv-y="2048"  />

      
      <glyph glyph-name="uni75" unicode="&#x75;" d="M1118 62Q1118 36 1099.50 18Q1081 0 1055 0Q1029 0 1011 18Q993 36 993 62L993 178Q809 0 599 0Q386 0 232 151Q81 303 81 519L81 1058Q81 1084 99 1102Q117 1120 143 1120Q169 1120 187 1102Q205 1084 205 1058L205 519Q205 355 320 240Q439 124 599 124Q761 124 877 240Q993 355 993 519L993 1058Q993 1084 1011 1102Q1029 1120 1055 1120Q1081 1120 1099.50 1102Q1118 1084 1118 1058L1118 62Z"  horiz-adv-x="1200" vert-adv-y="2048"  />

      
      <glyph glyph-name="uni76" unicode="&#x76;" d="M642 15Q627 0 599 0Q572 0 555 17Q548 24 545 31L85 1034Q81 1044 81 1058Q81 1084 99 1102Q117 1120 143 1120Q169 1120 188 1103Q194 1097 199 1087L599 212L999 1087Q1003 1095 1010 1102Q1029 1120 1055 1120Q1081 1120 1099.50 1102.50Q1118 1085 1118 1058Q1118 1045 1113 1034L653 31Q649 22 642 15Z"  horiz-adv-x="1200" vert-adv-y="2048"  />

      
      <glyph glyph-name="uni77" unicode="&#x77;" d="M760 1103Q778 1120 803 1120Q829 1120 846 1103Q858 1091 864 1072L1135 259L1409 1084Q1413 1094 1421 1102Q1439 1120 1467 1120Q1493 1120 1511 1102Q1529 1084 1529 1058Q1529 1046 1524 1032L1193 39Q1189 27 1178 16Q1162 0 1135 0Q1108 0 1091 17Q1082 26 1077 39L803 861L529 39Q525 27 516 18Q498 0 471 0Q444 0 427 17Q418 26 413 39L82 1032Q77 1047 77 1058Q77 1084 95 1102Q113 1120 139 1120Q165 1120 184 1102Q191 1095 196 1083L471 259L742 1072Q749 1092 760 1103Z"  horiz-adv-x="1600" vert-adv-y="2048"  />

      
      <glyph glyph-name="uni78" unicode="&#x78;" d="M477 561L96 1017Q81 1033 81 1058Q81 1084 99.50 1102Q118 1120 144 1120Q170 1120 189 1101L558 659L928 1101Q947 1120 973 1120Q999 1120 1017 1102Q1035 1084 1035 1058Q1035 1034 1021 1017L639 561L1024 100Q1035 83 1035 62Q1035 36 1017 18Q999 0 973 0Q947 0 931 19L558 464L186 19Q170 0 144 0Q118 0 99.50 18Q81 36 81 62Q81 83 93 100L477 561Z"  horiz-adv-x="1120" vert-adv-y="2048"  />

      
      <glyph glyph-name="uni79" unicode="&#x79;" d="M490 63L85 1033Q81 1046 81 1058Q81 1084 99.50 1102Q118 1120 144 1120Q170 1120 188 1102Q197 1093 203 1077L558 227L913 1077Q919 1093 930 1104Q946 1120 973 1120Q999 1120 1017 1102Q1035 1084 1036 1058Q1036 1048 1032 1036L416-438Q411-452 402-461Q383-480 357-480Q331-480 313-462Q295-444 295-418Q295-405 299-396L490 63Z"  horiz-adv-x="1120" vert-adv-y="2048"  />

      
      <glyph glyph-name="uni7a" unicode="&#x7a;" d="M973 124Q999 124 1017 106Q1035 88 1035 62Q1035 36 1017 18Q999 0 973 0L144 0Q118 0 99.50 18Q81 36 81 62Q81 83 93 100L839 996L144 996Q118 996 99.50 1014Q81 1032 81 1058Q81 1084 99.50 1102Q118 1120 144 1120L973 1120Q999 1120 1017 1102Q1035 1084 1035 1058Q1035 1034 1021 1017L275 124L973 124Z"  horiz-adv-x="1120" vert-adv-y="2048"  />

      
      <glyph glyph-name="uni7b" unicode="&#x7b;" d="M644 1601Q670 1601 688.50 1583Q707 1565 707 1539Q707 1513 688.50 1494.50Q670 1476 644 1476Q458 1476 458 1290L458 809Q458 650 366 560Q458 470 458 311L458-169Q458-355 644-355Q670-355 688.50-373.50Q707-392 707-418Q707-444 688.50-462Q670-480 644-480Q333-480 333-169L333 311Q333 498 147 498Q121 498 102.50 516Q84 534 84 560Q84 586 102.50 604Q121 622 147 622Q333 622 333 809L333 1290Q333 1601 644 1601Z"  horiz-adv-x="800" vert-adv-y="2048"  />

      
      <glyph glyph-name="uni7c" unicode="&#x7c;" d="M333 1540Q333 1566 351 1584Q369 1602 395 1602Q421 1602 439.50 1584Q458 1566 458 1540L458-418Q458-444 439.50-462Q421-480 395-480Q369-480 351-462Q333-444 333-418L333 1540Z"  horiz-adv-x="800" vert-adv-y="2048"  />

      
      <glyph glyph-name="uni7d" unicode="&#x7d;" d="M458 809Q458 622 644 622Q670 622 688.50 604Q707 586 707 560Q707 534 688.50 516Q670 498 644 498Q458 498 458 311L458-169Q458-480 147-480Q121-480 102.50-462Q84-444 84-418Q84-392 102.50-373.50Q121-355 147-355Q333-355 333-169L333 311Q333 469 424 560Q333 651 333 809L333 1290Q333 1476 147 1476Q121 1476 102.50 1494.50Q84 1513 84 1539Q84 1565 102.50 1583Q121 1601 147 1601Q458 1601 458 1290L458 809Z"  horiz-adv-x="800" vert-adv-y="2048"  />

      
      <glyph glyph-name="uni7e" unicode="&#x7e;" d="M517 707Q430 629 311 629Q182 629 90 721Q82 730 78 741.50Q74 753 74 764Q74 790 92 808.50Q110 827 136 827Q161 827 179 810Q235 754 311 754Q378 754 427 794Q515 873 635 873Q764 873 855 782Q872 764 872 738Q872 712 854 694Q836 676 810 676Q784 676 766 693Q712 749 635 749Q570 749 517 707Z"  horiz-adv-x="960" vert-adv-y="2048"  />

      
      <glyph glyph-name="unia1" unicode="&#xa1;" d="M192 912Q148 912 118 942Q88 970 88 1015Q88 1059 118 1089Q148 1119 192 1119Q236 1119 265 1089Q295 1059 295 1015Q295 970 265 942Q236 912 192 912M129 726Q129 750 148 768.50Q167 787 192 787Q218 787 236 769Q254 751 254 726L254-418Q254-444 236-462Q218-480 192-480Q166-480 147.50-462Q129-444 129-418L129 726Z"  horiz-adv-x="400" vert-adv-y="2048"  />

      
      <glyph glyph-name="unia2" unicode="&#xa2;" d="M665 997Q461 989 341 868Q213 741 213 560Q213 382 360 232L665 997M169-246L311 112Q280 135 252 164Q89 327 89 560Q89 793 252 956Q416 1120 649 1120Q686 1120 713 1117L832 1413Q843 1438 866 1448Q875 1452 890 1452Q916 1452 934 1433.50Q952 1415 952 1390Q952 1380 947 1367L837 1090Q888 1070 933 1043Q978 1016 1014 985Q1024 976 1029.50 963Q1035 950 1035 936Q1035 910 1017 892Q999 874 973 874Q951 874 933 889Q876 939 791 973L466 163Q560 124 649 124Q727 124 800.50 153Q874 182 933 231Q948 243 970 243Q996 243 1014 224.50Q1032 206 1032 180Q1032 155 1014 135Q937 70 844.50 35Q752 0 649 0Q537 0 420 48L285-292Q281-305 270-316Q252-334 226-334Q200-334 182-316Q164-298 164-272Q164-258 169-246Z"  horiz-adv-x="1120" vert-adv-y="2048"  />

      
      <glyph glyph-name="unia3" unicode="&#xa3;" d="M227 0Q201 0 183 18Q165 36 165 61Q165 72 170 87Q294 374 288 658L144 658Q118 658 100 676Q82 694 82 719Q82 745 100 763Q118 781 144 781L278 781Q249 935 194 1066L195 1065Q165 1140 165 1213Q165 1375 280 1489Q338 1546 407 1574.50Q476 1603 559 1603Q642 1603 711 1574.50Q780 1546 838 1489Q867 1459 889 1428Q901 1411 901 1389Q901 1363 883 1345.50Q865 1328 839 1328Q810 1328 795 1347Q777 1373 750 1402Q670 1479 559 1479Q448 1479 368 1400Q289 1323 289 1213Q289 1187 294.50 1162Q300 1137 311 1112Q343 1037 366 954Q389 871 403 781L725 781Q751 781 769 763Q787 745 787 719Q787 694 769 676Q751 658 725 658L413 658Q414 529 391 396Q368 263 319 123L769 123L837 258Q851 287 891 287Q917 287 935 269.50Q953 252 953 226Q953 209 946 196L866 37Q861 27 853 19Q834 0 808 0L227 0Z"  horiz-adv-x="1040" vert-adv-y="2048"  />

      
      <glyph glyph-name="unia4" unicode="&#xa4;" d="M477 944Q400 944 345 889Q290 832 290 757Q290 682 345 625Q400 570 477 570Q552 570 609 625Q664 682 664 757Q664 832 609 889Q552 944 477 944M734 1101Q753 1120 778 1120Q804 1120 822 1102Q840 1084 840 1058Q840 1032 821 1012L736 932Q788 846 788 757Q788 673 739 587L822 501Q840 482 840 456Q840 430 822 412Q804 394 778 394Q752 394 736 411L652 498Q566 446 477 446Q391 446 308 495L217 409Q201 394 176 394Q150 394 132 412Q114 430 114 456Q114 482 133 500L220 581Q192 624 179 667.50Q166 711 166 757Q166 844 215 927L133 1014Q114 1032 114 1058Q114 1084 132 1102Q150 1120 176 1120Q202 1120 219 1104L302 1016Q385 1068 477 1068Q564 1068 647 1019L734 1101Z"  horiz-adv-x="960" vert-adv-y="2048"  />

      
      <glyph glyph-name="unia5" unicode="&#xa5;" d="M142 905Q116 905 98 922.50Q80 940 80 966Q80 992 98 1009.50Q116 1027 142 1027L414 1027L89 1506Q80 1521 80 1542Q80 1567 98 1585Q116 1603 142 1603Q173 1603 192 1578L640 912L1088 1578Q1105 1603 1138 1603Q1164 1603 1182 1585Q1200 1567 1200 1542Q1200 1521 1189 1506L866 1027L1139 1027Q1164 1027 1182 1009Q1200 991 1200 966Q1200 940 1182 922Q1164 905 1139 905L783 905L702 784L702 616L1138 616Q1164 616 1182 598.50Q1200 581 1200 555Q1200 529 1182 511Q1164 493 1138 493L702 493L702 61Q702 36 684 18Q666 0 640 0Q614 0 596 18Q578 36 578 61L578 493L142 493Q116 493 98 511Q80 529 80 555Q80 581 98 598.50Q116 616 142 616L578 616L578 784L497 905L142 905Z"  horiz-adv-x="1280" vert-adv-y="2048"  />

      
      <glyph glyph-name="unia6" unicode="&#xa6;" d="M170 1721Q170 1747 188 1765.50Q206 1784 232 1784Q258 1784 276.50 1765.50Q295 1747 295 1721L295 975Q295 949 276.50 931Q258 913 232 913Q206 913 188 931Q170 949 170 975L170 1721M295-418Q295-444 276.50-462Q258-480 232-480Q206-480 188-462Q170-444 170-418L170 311Q170 337 188 355Q206 373 232 373Q258 373 276.50 355Q295 337 295 311L295-418Z"  horiz-adv-x="480" vert-adv-y="2048"  />

      
      <glyph glyph-name="unia7" unicode="&#xa7;" d="M477 172Q313 172 198 285Q83 398 83 560Q83 721 198 834Q232 867 262 886Q232 905 198 938Q83 1050 83 1213Q83 1374 198 1487Q256 1543 325 1571.50Q394 1600 477 1600Q560 1600 629 1571.50Q698 1543 756 1487Q871 1374 871 1213Q871 1187 853 1169Q835 1151 809 1151Q783 1151 765 1169Q747 1187 747 1213Q747 1322 667 1398Q587 1477 477 1477Q366 1477 286 1398Q207 1322 207 1213Q207 1102 286 1025Q365 947 477 947Q641 947 756 834Q871 721 871 560Q871 398 756 285Q723 252 692 233Q723 214 756 181Q871 69 871-93Q871-254 756-367Q698-423 629-451.50Q560-480 477-480Q394-480 325-451.50Q256-423 198-367Q83-254 83-93Q83-67 101-49Q119-31 145-31Q171-31 189-49Q207-67 207-93Q207-202 286-278Q366-357 477-357Q587-357 667-278Q747-202 747-93Q747 15 667 93Q587 172 477 172M477 825Q366 825 286 746Q207 669 207 560Q207 449 286 372Q365 294 477 294Q588 294 667 372Q747 450 747 560Q747 668 667 746Q587 825 477 825Z"  horiz-adv-x="960" vert-adv-y="2048"  />

      
      <glyph glyph-name="unia8" unicode="&#xa8;" d="M310 1390Q310 1355 286 1331Q262 1307 227 1307Q192 1307 168 1331Q144 1355 144 1390Q144 1424 168 1448.50Q192 1473 227 1473Q262 1473 286 1448.50Q310 1424 310 1390M808 1390Q808 1355 783.50 1331Q759 1307 725 1307Q690 1307 666 1331Q642 1355 642 1390Q642 1424 666 1448.50Q690 1473 725 1473Q759 1473 783.50 1448.50Q808 1424 808 1390Z"  horiz-adv-x="960" vert-adv-y="2048"  />

      
      <glyph glyph-name="unia9" unicode="&#xa9;" d="M1199 489Q1225 489 1243 470.50Q1261 452 1261 426Q1261 401 1242 382Q1166 317 1073.50 282Q981 247 879 247Q648 247 485 410Q322 573 322 804Q322 1035 485 1198Q648 1361 879 1361Q981 1361 1074 1326Q1167 1291 1242 1226Q1264 1207 1264 1178Q1264 1152 1246 1134Q1228 1116 1202 1116Q1179 1116 1163 1130Q1042 1236 879 1236Q699 1236 573 1110Q447 984 447 804Q447 624 573 498Q700 371 879 371Q957 371 1030.50 399.50Q1104 428 1161 477Q1177 489 1199 489M1678 802Q1678 470 1443 234Q1208 0 877 0Q545 0 310 234Q75 470 75 802Q75 1135 310 1367Q543 1603 877 1603Q1209 1603 1443 1367Q1678 1135 1678 802M877 1518Q581 1518 370 1307Q161 1098 161 802Q161 505 370 295Q582 85 877 85Q1172 85 1382 295Q1593 506 1593 802Q1593 1099 1382 1307Q1174 1518 877 1518Z"  horiz-adv-x="1760" vert-adv-y="2048"  />

      
      <glyph glyph-name="uniaa" unicode="&#xaa;" d="M477 1493Q366 1493 286 1413Q207 1335 207 1224Q207 1112 286 1033Q365 954 477 954Q588 954 667 1033Q747 1113 747 1224Q747 1335 667 1413Q587 1493 477 1493M747 939Q635 830 477 830Q313 830 198 945Q83 1059 83 1224Q83 1388 198 1503Q256 1560 325 1589Q394 1618 477 1618Q560 1618 629 1589Q698 1560 756 1503Q871 1388 871 1224L871 892Q871 866 853 848Q835 830 809 830Q783 830 765 848Q747 866 747 891L747 939Z"  horiz-adv-x="960" vert-adv-y="2048"  />

      
      <glyph glyph-name="uniab" unicode="&#xab;" d="M336 1080Q343 1094 350 1101Q368 1119 394 1119Q420 1119 438 1101Q456 1083 456 1057Q456 1042 451 1031L215 560L451 88Q456 77 456 62Q456 36 438 18Q420 0 394 0Q369 0 354 14Q345 23 336 38L93 524Q83 543 83 559Q83 575 91 590L336 1080M760 1080Q767 1094 774 1101Q792 1119 818 1119Q844 1119 862 1101Q880 1083 880 1057Q880 1042 875 1031L639 560L875 88Q880 77 880 62Q880 36 862 18Q844 0 818 0Q793 0 778 14Q769 23 760 38L517 524Q507 543 507 559Q507 575 515 590L760 1080Z"  horiz-adv-x="960" vert-adv-y="2048"  />

      
      <glyph glyph-name="uniac" unicode="&#xac;" d="M144 996Q118 996 99.50 1014Q81 1032 81 1058Q81 1084 99.50 1102Q118 1120 144 1120L973 1120Q999 1120 1017 1102Q1035 1084 1035 1058L1035 726Q1035 700 1017 682Q999 664 973 664Q947 664 929 682Q911 700 911 726L911 996L144 996Z"  horiz-adv-x="1120" vert-adv-y="2048"  />

      
      <glyph glyph-name="uniae" unicode="&#xae;" d="M1681 800Q1681 469 1447 233Q1212 0 882 0Q551 0 316 233Q82 469 82 800Q82 1132 316 1364Q549 1599 882 1599Q1213 1599 1447 1364Q1681 1132 1681 800M882 1514Q587 1514 376 1304Q168 1095 168 800Q168 504 376 294Q588 85 882 85Q1176 85 1386 294Q1596 505 1596 800Q1596 1096 1386 1304Q1178 1514 882 1514M643 1251L643 779L879 779Q976 779 1046 849Q1116 917 1116 1016Q1116 1112 1046 1183Q975 1251 879 1251L643 1251M879 1317Q1005 1317 1093 1229Q1182 1141 1182 1016Q1182 954 1160 900Q1138 846 1093 801Q1072 780 1044 761.50Q1016 743 983 728L1229 334Q1236 324 1236 314Q1236 300 1226 290.50Q1216 281 1203 281Q1183 281 1173 298L913 716Q895 713 879 713L643 713L643 314Q643 300 632.50 290.50Q622 281 608 281Q596 281 586 290.50Q576 300 576 314L576 1285Q576 1299 586 1308Q596 1317 608 1317L879 1317Z"  horiz-adv-x="1760" vert-adv-y="2048"  />

      
      <glyph glyph-name="uniaf" unicode="&#xaf;" d="M144 1825Q118 1825 99.50 1843Q81 1861 81 1887Q81 1913 99.50 1931.50Q118 1950 144 1950L973 1950Q999 1950 1017 1931.50Q1035 1913 1035 1887Q1035 1861 1017 1843Q999 1825 973 1825L144 1825Z"  horiz-adv-x="1120" vert-adv-y="2048"  />

      
      <glyph glyph-name="unib0" unicode="&#xb0;" d="M871 1224Q871 1059 756 945Q641 830 477 830Q313 830 198 945Q83 1059 83 1224Q83 1388 198 1503Q256 1560 325 1589Q394 1618 477 1618Q560 1618 629 1589Q698 1560 756 1503Q871 1388 871 1224M477 1493Q366 1493 286 1413Q207 1335 207 1224Q207 1112 286 1033Q365 954 477 954Q588 954 667 1033Q747 1113 747 1224Q747 1335 667 1413Q587 1493 477 1493Z"  horiz-adv-x="960" vert-adv-y="2048"  />

      
      <glyph glyph-name="unib1" unicode="&#xb1;" d="M496 1224Q496 1250 514 1268Q532 1286 558 1286Q584 1286 602.50 1268Q621 1250 621 1224L621 871L973 871Q999 871 1017 853Q1035 835 1035 809Q1035 783 1017 765Q999 747 973 747L621 747L621 394Q621 368 602.50 350Q584 332 558 332Q532 332 514 350Q496 368 496 394L496 747L144 747Q118 747 99.50 765Q81 783 81 809Q81 835 99.50 853Q118 871 144 871L496 871L496 1224M144 0Q118 0 99.50 18Q81 36 81 62Q81 88 99.50 106Q118 124 144 124L973 124Q999 124 1017 106Q1035 88 1035 62Q1035 36 1017 18Q999 0 973 0L144 0Z"  horiz-adv-x="1120" vert-adv-y="2048"  />

      
      <glyph glyph-name="unib2" unicode="&#xb2;" d="M517 878Q525 878 531 872.50Q537 867 537 859Q537 849 531 843.50Q525 838 517 838L107 838Q86 838 86 859Q86 866 92 874Q179 970 267 1068.50Q355 1167 443 1262Q468 1288 482 1322Q496 1356 496 1392Q496 1468 442 1522Q387 1577 312 1577Q234 1577 180 1522Q126 1468 126 1392Q126 1384 120.50 1378Q115 1372 107 1372Q97 1372 91.50 1378Q86 1384 86 1392Q86 1486 151 1551Q218 1618 312 1618Q405 1618 471 1551Q537 1486 537 1392Q537 1299 470 1231L152 878L517 878Z"  horiz-adv-x="640" vert-adv-y="2048"  />

      
      <glyph glyph-name="unib3" unicode="&#xb3;" d="M314 1245Q304 1245 298.50 1251Q293 1257 293 1266Q293 1274 298.50 1280.50Q304 1287 314 1287Q374 1287 416 1329Q458 1371 458 1431Q458 1492 416 1534Q374 1576 314 1576Q253 1576 211 1534Q169 1492 169 1431Q169 1423 162.50 1417Q156 1411 148 1411Q139 1411 133 1417Q127 1423 127 1431Q127 1509 181 1563Q236 1618 314 1618Q353 1618 385 1604Q417 1590 445 1563Q500 1508 500 1431Q500 1346 409 1267Q432 1253 449 1241Q466 1229 475 1221Q541 1153 541 1059Q541 965 475 898Q409 832 314 832Q218 832 152 898Q86 965 86 1059Q86 1067 91.50 1073.50Q97 1080 107 1080Q115 1080 121 1073.50Q127 1067 127 1059Q127 981 181 927Q235 873 314 873Q389 873 445 927Q500 982 500 1059Q500 1098 486 1130.50Q472 1163 445 1191Q389 1245 314 1245Z"  horiz-adv-x="640" vert-adv-y="2048"  />

      
      <glyph glyph-name="unib4" unicode="&#xb4;" d="M191 1241Q174 1225 149 1225Q123 1225 105 1243.50Q87 1262 87 1288Q87 1313 101 1329L353 1581Q371 1599 398 1599Q424 1599 442 1581Q460 1563 460 1537Q460 1525 456 1513.50Q452 1502 443 1493L191 1241Z"  horiz-adv-x="560" vert-adv-y="2048"  />

      
      <glyph glyph-name="unib5" unicode="&#xb5;" d="M205 519Q205 355 320 240Q439 124 599 124Q761 124 877 240Q993 355 993 519L993 1058Q993 1084 1011 1102Q1029 1120 1055 1120Q1081 1120 1099.50 1102Q1118 1084 1118 1058L1118 62Q1118 36 1099.50 18Q1081 0 1055 0Q1029 0 1011 18Q993 36 993 62L993 178Q809 0 599 0Q389 0 205 178L205-418Q205-444 187-462Q169-480 143-480Q117-480 99-462Q81-444 81-418L81 1058Q81 1084 99 1102Q117 1120 143 1120Q169 1120 187 1102Q205 1084 205 1058L205 519Z"  horiz-adv-x="1200" vert-adv-y="2048"  />

      
      <glyph glyph-name="unib6" unicode="&#xb6;" d="M952 62Q952 36 934 18Q916 0 890 0Q864 0 846 18Q828 36 828 62L828 1476L621 1476L621 62Q621 36 602.50 18Q584 0 558 0Q532 0 514 18Q496 36 496 62L496 813Q311 813 196 928Q81 1043 81 1207Q81 1290 110 1359Q139 1428 196 1486Q254 1543 323 1572Q392 1601 475 1601L973 1601Q999 1601 1017 1583Q1035 1565 1035 1539Q1035 1513 1011 1494.50Q987 1476 952 1476L952 62Z"  horiz-adv-x="1120" vert-adv-y="2048"  />

      
      <glyph glyph-name="unib7" unicode="&#xb7;" d="M295 767Q295 722 265 694Q236 664 192 664Q148 664 118 694Q88 722 88 767Q88 811 118 841Q148 871 192 871Q236 871 265 841Q295 811 295 767Z"  horiz-adv-x="400" vert-adv-y="2048"  />

      
      <glyph glyph-name="uni2219" unicode="&#x2219;" d="M295 767Q295 722 265 694Q236 664 192 664Q148 664 118 694Q88 722 88 767Q88 811 118 841Q148 871 192 871Q236 871 265 841Q295 811 295 767Z"  horiz-adv-x="400" vert-adv-y="2048"  />

      
      <glyph glyph-name="unib8" unicode="&#xb8;" d="M312 60Q329 77 355 77Q381 77 399.50 59Q418 41 418 15Q418 7 416-1L395-79Q446-101 477-125Q542-182 542-265Q542-346 476-404Q409-462 314-462Q261-462 205-434L114-380Q86-360 86-327Q86-301 104-283Q122-265 148-265Q167-265 182-274L263-325Q287-337 314-337Q357-337 387.50-317.50Q418-298 418-265Q418-231 387.50-211.50Q357-192 314-192Q288-192 270-174Q252-156 252-130Q252-119 255-110L295 33Q300 48 312 60Z"  horiz-adv-x="640" vert-adv-y="2048"  />

      
      <glyph glyph-name="unib9" unicode="&#xb9;" d="M157 1537Q153 1535 148 1535Q140 1535 134 1541Q128 1547 128 1555Q128 1563 134 1569Q137 1572 141 1574L265 1617Q269 1618 273 1618Q281 1618 287.50 1611.50Q294 1605 294 1597L294 856Q294 846 287.50 840.50Q281 835 273 835Q265 835 259 840.50Q253 846 253 856L253 1569L157 1537Z"  horiz-adv-x="480" vert-adv-y="2048"  />

      
      <glyph glyph-name="uniba" unicode="&#xba;" d="M86 1227Q86 1466 181 1564Q236 1618 313 1618Q352 1618 384 1604.50Q416 1591 444 1564Q539 1466 539 1227Q539 987 444 889Q390 835 313 835Q235 835 181 889Q86 987 86 1227M313 1577Q252 1577 209 1533Q127 1440 127 1227Q127 1012 209 919Q252 876 313 876Q372 876 415 919Q499 1013 499 1227Q499 1437 415 1533Q372 1577 313 1577Z"  horiz-adv-x="640" vert-adv-y="2048"  />

      
      <glyph glyph-name="unibb" unicode="&#xbb;" d="M872 590Q880 575 880 559Q880 543 870 524L627 38Q618 23 609 14Q594 0 569 0Q543 0 525 18Q507 36 507 62Q507 77 512 88L748 560L512 1031Q507 1042 507 1057Q507 1083 525 1101Q543 1119 569 1119Q595 1119 613 1101Q620 1094 627 1080L872 590M448 590Q456 575 456 559Q456 543 446 524L203 38Q194 23 185 14Q170 0 145 0Q119 0 101 18Q83 36 83 62Q83 77 88 88L324 560L88 1031Q83 1042 83 1057Q83 1083 101 1101Q119 1119 145 1119Q171 1119 189 1101Q196 1094 203 1080L448 590Z"  horiz-adv-x="960" vert-adv-y="2048"  />

      
      <glyph glyph-name="unibc" unicode="&#xbc;" d="M1219 1618Q1245 1618 1263 1600Q1281 1582 1281 1556Q1281 1537 1272 1521L279 33Q256 0 224 0Q198 0 179.50 18Q161 36 161 62Q161 82 171 96L1170 1595Q1178 1606 1190 1612Q1202 1618 1219 1618M286 693Q286 680 277.50 672Q269 664 257 664Q244 664 236 672Q228 680 228 693L228 1548L121 1513Q115 1511 107 1511Q95 1511 86.50 1519Q78 1527 78 1540Q78 1553 87 1561Q91 1565 98 1568L245 1617Q251 1619 257 1619Q269 1619 277.50 1610.50Q286 1602 286 1590L286 693M1157 307L1157 831L795 307L1157 307M738 249Q725 249 717 257Q709 265 709 278Q709 287 714 295L1165 946Q1172 954 1186 954Q1199 954 1207 946Q1215 938 1215 925L1215 307L1335 307Q1348 307 1356 299Q1364 291 1364 278Q1364 265 1356 257Q1348 249 1335 249L1215 249L1215 29Q1215 16 1207 8Q1199 0 1186 0Q1173 0 1165 8Q1157 16 1157 29L1157 249L738 249Z"  horiz-adv-x="1440" vert-adv-y="2048"  />

      
      <glyph glyph-name="unibd" unicode="&#xbd;" d="M1500 58Q1511 58 1520 50Q1529 42 1529 29Q1529 16 1520 8Q1511 0 1500 0L1001 0Q988 0 980 8Q972 16 972 29Q972 42 980 50L1406 522Q1471 587 1471 677Q1471 770 1405 833Q1341 897 1250 897Q1160 897 1094 833Q1030 767 1030 677Q1030 665 1021.50 656.50Q1013 648 1001 648Q988 648 980 656.50Q972 665 972 677Q972 792 1053 873Q1135 955 1250 955Q1366 955 1447 873Q1529 792 1529 677Q1529 561 1446 478L1067 58L1500 58M286 693Q286 680 277.50 672Q269 664 257 664Q244 664 236 672Q228 680 228 693L228 1548L121 1513Q115 1511 107 1511Q95 1511 86.50 1519Q78 1527 78 1540Q78 1553 87 1561Q91 1565 98 1568L245 1617Q251 1619 257 1619Q269 1619 277.50 1610.50Q286 1602 286 1590L286 693M1219 1618Q1245 1618 1263 1600Q1281 1582 1281 1556Q1281 1537 1272 1521L279 33Q256 0 224 0Q198 0 179.50 18Q161 36 161 62Q161 82 171 96L1170 1595Q1178 1606 1190 1612Q1202 1618 1219 1618Z"  horiz-adv-x="1600" vert-adv-y="2048"  />

      
      <glyph glyph-name="unibe" unicode="&#xbe;" d="M354 1160Q341 1160 333 1168.50Q325 1177 325 1189Q325 1200 333 1208.50Q341 1217 354 1217Q423 1217 473 1267Q524 1318 524 1388Q524 1457 473 1507Q423 1557 354 1557Q285 1557 235 1507Q185 1458 185 1388Q185 1375 176 1367Q167 1359 156 1359Q143 1359 135 1367Q127 1375 127 1388Q127 1483 193 1548Q260 1615 354 1615Q448 1615 515 1548Q581 1482 581 1388Q581 1293 515 1227Q498 1209 475 1192Q515 1174 550 1138Q631 1055 631 941Q631 826 550 745Q469 664 354 664Q239 664 158 745Q77 826 77 941Q77 953 85 961.50Q93 970 106 970Q119 970 127 961.50Q135 953 135 941Q135 850 198 786Q264 722 354 722Q444 722 508 786Q573 851 573 941Q573 1033 508 1096Q445 1160 354 1160M1377 1618Q1403 1618 1421 1600Q1439 1582 1439 1556Q1439 1537 1430 1521L437 33Q414 0 382 0Q356 0 337.50 18Q319 36 319 62Q319 82 329 96L1328 1595Q1336 1606 1348 1612Q1360 1618 1377 1618M1328 307L1328 831L966 307L1328 307M909 249Q896 249 888 257Q880 265 880 278Q880 287 885 295L1336 946Q1343 954 1357 954Q1370 954 1378 946Q1386 938 1386 925L1386 307L1506 307Q1519 307 1527 299Q1535 291 1535 278Q1535 265 1527 257Q1519 249 1506 249L1386 249L1386 29Q1386 16 1378 8Q1370 0 1357 0Q1344 0 1336 8Q1328 16 1328 29L1328 249L909 249Z"  horiz-adv-x="1600" vert-adv-y="2048"  />

      
      <glyph glyph-name="unibf" unicode="&#xbf;" d="M557-355Q703-355 807-252Q909-149 909-3Q909 23 927 41Q945 59 971 59Q997 59 1015.50 41Q1034 23 1034-3Q1034-201 895-340Q753-480 557-480Q358-480 220-340Q149-271 114.50-186.50Q80-102 80-3Q80 196 220 335L220 334L391 493Q494 596 494 744Q494 770 512.50 788Q531 806 557 806Q583 806 601 788Q619 770 619 744Q619 546 479 406L479 407Q436 367 393.50 327Q351 287 308 247Q204 144 204-3Q204-149 308-252Q410-355 557-355M556 912Q512 912 482 942Q452 970 452 1015Q452 1059 482 1089Q512 1119 556 1119Q601 1119 629 1089Q659 1059 659 1015Q659 970 629 942Q601 912 556 912Z"  horiz-adv-x="1120" vert-adv-y="2048"  />

      
      <glyph glyph-name="unic0" unicode="&#xc0;" d="M421 574L212 38Q206 24 198 16Q181 0 155 0Q129 0 111 18Q93 36 93 62Q93 75 99 89L670 1556Q676 1572 686 1583Q703 1600 729 1600Q755 1600 773 1582Q783 1572 789 1556L1359 89Q1365 75 1365 62Q1365 36 1347 18Q1329 0 1304 0Q1278 0 1261 15Q1252 24 1246 38L1038 574L421 574M990 697L729 1369L469 697L990 697M485 2019Q485 2045 503 2063Q521 2081 547 2081Q573 2081 591 2063L843 1811Q858 1794 858 1770Q858 1744 840 1725.50Q822 1707 796 1707Q772 1707 753 1723L501 1975Q493 1984 489 1995.50Q485 2007 485 2019Z"  horiz-adv-x="1440" vert-adv-y="2048"  />

      
      <glyph glyph-name="unic1" unicode="&#xc1;" d="M421 574L212 38Q206 24 198 16Q181 0 155 0Q129 0 111 18Q93 36 93 62Q93 75 99 89L670 1556Q676 1572 686 1583Q703 1600 729 1600Q755 1600 773 1582Q783 1572 789 1556L1359 89Q1365 75 1365 62Q1365 36 1347 18Q1329 0 1304 0Q1278 0 1261 15Q1252 24 1246 38L1038 574L421 574M990 697L729 1369L469 697L990 697M711 1721Q694 1705 669 1705Q643 1705 625 1723.50Q607 1742 607 1768Q607 1793 621 1809L873 2061Q891 2079 918 2079Q944 2079 962 2061Q980 2043 980 2017Q980 2005 976 1993.50Q972 1982 963 1973L711 1721Z"  horiz-adv-x="1440" vert-adv-y="2048"  />

      
      <glyph glyph-name="unic2" unicode="&#xc2;" d="M421 574L212 38Q206 24 198 16Q181 0 155 0Q129 0 111 18Q93 36 93 62Q93 75 99 89L670 1556Q676 1572 686 1583Q703 1600 729 1600Q755 1600 773 1582Q783 1572 789 1556L1359 89Q1365 75 1365 62Q1365 36 1347 18Q1329 0 1304 0Q1278 0 1261 15Q1252 24 1246 38L1038 574L421 574M990 697L729 1369L469 697L990 697M1007 1883Q1040 1860 1040 1828Q1040 1802 1021.50 1784Q1003 1766 977 1766Q955 1766 937 1779L728 1918L519 1779Q501 1766 480 1766Q454 1766 435.50 1784Q417 1802 417 1828Q417 1860 449 1883L697 2048Q711 2056 728 2056Q746 2056 760 2048L1007 1883Z"  horiz-adv-x="1440" vert-adv-y="2048"  />

      
      <glyph glyph-name="unic3" unicode="&#xc3;" d="M421 574L212 38Q206 24 198 16Q181 0 155 0Q129 0 111 18Q93 36 93 62Q93 75 99 89L670 1556Q676 1572 686 1583Q703 1600 729 1600Q755 1600 773 1582Q783 1572 789 1556L1359 89Q1365 75 1365 62Q1365 36 1347 18Q1329 0 1304 0Q1278 0 1261 15Q1252 24 1246 38L1038 574L421 574M990 697L729 1369L469 697L990 697M767 1838Q680 1760 561 1760Q432 1760 340 1852Q332 1861 328 1872.50Q324 1884 324 1895Q324 1921 342 1939.50Q360 1958 386 1958Q411 1958 429 1941Q485 1885 561 1885Q628 1885 677 1925Q765 2004 885 2004Q1014 2004 1105 1913Q1122 1895 1122 1869Q1122 1843 1104 1825Q1086 1807 1060 1807Q1034 1807 1016 1824Q962 1880 885 1880Q820 1880 767 1838Z"  horiz-adv-x="1440" vert-adv-y="2048"  />

      
      <glyph glyph-name="unic4" unicode="&#xc4;" d="M421 574L212 38Q206 24 198 16Q181 0 155 0Q129 0 111 18Q93 36 93 62Q93 75 99 89L670 1556Q676 1572 686 1583Q703 1600 729 1600Q755 1600 773 1582Q783 1572 789 1556L1359 89Q1365 75 1365 62Q1365 36 1347 18Q1329 0 1304 0Q1278 0 1261 15Q1252 24 1246 38L1038 574L421 574M990 697L729 1369L469 697L990 697M564 1870Q564 1835 540 1811Q516 1787 481 1787Q446 1787 422 1811Q398 1835 398 1870Q398 1904 422 1928.50Q446 1953 481 1953Q516 1953 540 1928.50Q564 1904 564 1870M1062 1870Q1062 1835 1037.50 1811Q1013 1787 979 1787Q944 1787 920 1811Q896 1835 896 1870Q896 1904 920 1928.50Q944 1953 979 1953Q1013 1953 1037.50 1928.50Q1062 1904 1062 1870Z"  horiz-adv-x="1440" vert-adv-y="2048"  />

      
      <glyph glyph-name="unic5" unicode="&#xc5;" d="M421 574L212 38Q206 24 198 16Q181 0 155 0Q129 0 111 18Q93 36 93 62Q93 75 99 89L670 1556Q676 1572 686 1583Q703 1600 729 1600Q755 1600 773 1582Q783 1572 789 1556L1359 89Q1365 75 1365 62Q1365 36 1347 18Q1329 0 1304 0Q1278 0 1261 15Q1252 24 1246 38L1038 574L421 574M990 697L729 1369L469 697L990 697M914 1892Q914 1815 859 1758Q804 1703 726 1703Q649 1703 592 1758Q537 1815 537 1892Q537 1970 592 2025Q649 2080 726 2080Q804 2080 859 2025Q914 1970 914 1892M726 1783Q771 1783 803 1815Q835 1847 835 1892Q835 1937 803 1969Q771 2001 726 2001Q681 2001 649 1969Q617 1937 617 1892Q617 1847 649 1815Q681 1783 726 1783Z"  horiz-adv-x="1440" vert-adv-y="2048"  />

      
      <glyph glyph-name="unic6" unicode="&#xc6;" d="M900 1300L611 779L900 779L900 1300M1618 1600Q1644 1600 1661.50 1582Q1679 1564 1679 1538Q1679 1513 1661.50 1495Q1644 1477 1618 1477L1023 1477L1023 779L1454 779Q1479 779 1497 761.50Q1515 744 1515 718Q1515 692 1497 674Q1479 656 1454 656L1023 656L1023 123L1618 123Q1644 123 1661.50 105Q1679 87 1679 62Q1679 36 1661.50 18Q1644 0 1618 0L961 0Q935 0 917.50 18Q900 36 900 62L900 656L542 656L193 29Q174 0 141 0Q115 0 97 18Q79 36 79 62Q79 79 86 90L909 1572Q926 1600 961 1600L1618 1600Z"  horiz-adv-x="1760" vert-adv-y="2048"  />

      
      <glyph glyph-name="unic7" unicode="&#xc7;" d="M1350 281Q1376 281 1394 263Q1412 245 1412 219Q1412 194 1397 178Q1285 91 1159 45.50Q1033 0 893 0Q730 0 587 61Q444 122 327 234Q215 351 154 494Q93 637 93 800Q93 1131 327 1365Q562 1600 893 1600Q1178 1600 1400 1418Q1418 1400 1418 1374Q1418 1349 1400 1331Q1382 1313 1357 1313Q1331 1313 1306 1337Q1133 1477 893 1477Q613 1477 414 1278Q216 1080 216 800Q216 519 414 321Q612 123 893 123Q1135 123 1317 272Q1330 281 1350 281M751 60Q768 77 794 77Q820 77 838.50 59Q857 41 857 15Q857 7 855-1L834-79Q885-101 916-125Q981-182 981-265Q981-346 915-404Q848-462 753-462Q700-462 644-434L553-380Q525-360 525-327Q525-301 543-283Q561-265 587-265Q606-265 621-274L702-325Q726-337 753-337Q796-337 826.50-317.50Q857-298 857-265Q857-231 826.50-211.50Q796-192 753-192Q727-192 709-174Q691-156 691-130Q691-119 694-110L734 33Q739 48 751 60Z"  horiz-adv-x="1480" vert-adv-y="2048"  />

      
      <glyph glyph-name="unic8" unicode="&#xc8;" d="M1142 1600Q1167 1600 1185 1582Q1203 1564 1203 1538Q1203 1513 1185 1495Q1167 1477 1142 1477L218 1477L218 862L895 862Q921 862 939 844Q957 826 957 800Q957 774 939 756Q921 738 895 738L218 738L218 123L1142 123Q1167 123 1185 105Q1203 87 1203 62Q1203 36 1185 18Q1167 0 1142 0L157 0Q131 0 113 18Q95 36 95 62L95 1538Q95 1564 113 1582Q131 1600 157 1600L1142 1600M408 2019Q408 2045 426 2063Q444 2081 470 2081Q496 2081 514 2063L766 1811Q781 1794 781 1770Q781 1744 763 1725.50Q745 1707 719 1707Q695 1707 676 1723L424 1975Q416 1984 412 1995.50Q408 2007 408 2019Z"  horiz-adv-x="1280" vert-adv-y="2048"  />

      
      <glyph glyph-name="unic9" unicode="&#xc9;" d="M1142 1600Q1167 1600 1185 1582Q1203 1564 1203 1538Q1203 1513 1185 1495Q1167 1477 1142 1477L218 1477L218 862L895 862Q921 862 939 844Q957 826 957 800Q957 774 939 756Q921 738 895 738L218 738L218 123L1142 123Q1167 123 1185 105Q1203 87 1203 62Q1203 36 1185 18Q1167 0 1142 0L157 0Q131 0 113 18Q95 36 95 62L95 1538Q95 1564 113 1582Q131 1600 157 1600L1142 1600M634 1721Q617 1705 592 1705Q566 1705 548 1723.50Q530 1742 530 1768Q530 1793 544 1809L796 2061Q814 2079 841 2079Q867 2079 885 2061Q903 2043 903 2017Q903 2005 899 1993.50Q895 1982 886 1973L634 1721Z"  horiz-adv-x="1280" vert-adv-y="2048"  />

      
      <glyph glyph-name="unica" unicode="&#xca;" d="M1142 1600Q1167 1600 1185 1582Q1203 1564 1203 1538Q1203 1513 1185 1495Q1167 1477 1142 1477L218 1477L218 862L895 862Q921 862 939 844Q957 826 957 800Q957 774 939 756Q921 738 895 738L218 738L218 123L1142 123Q1167 123 1185 105Q1203 87 1203 62Q1203 36 1185 18Q1167 0 1142 0L157 0Q131 0 113 18Q95 36 95 62L95 1538Q95 1564 113 1582Q131 1600 157 1600L1142 1600M928 1883Q961 1860 961 1828Q961 1802 942.50 1784Q924 1766 898 1766Q876 1766 858 1779L649 1918L440 1779Q422 1766 401 1766Q375 1766 356.50 1784Q338 1802 338 1828Q338 1860 370 1883L618 2048Q632 2056 649 2056Q667 2056 681 2048L928 1883Z"  horiz-adv-x="1280" vert-adv-y="2048"  />

      
      <glyph glyph-name="unicb" unicode="&#xcb;" d="M1142 1600Q1167 1600 1185 1582Q1203 1564 1203 1538Q1203 1513 1185 1495Q1167 1477 1142 1477L218 1477L218 862L895 862Q921 862 939 844Q957 826 957 800Q957 774 939 756Q921 738 895 738L218 738L218 123L1142 123Q1167 123 1185 105Q1203 87 1203 62Q1203 36 1185 18Q1167 0 1142 0L157 0Q131 0 113 18Q95 36 95 62L95 1538Q95 1564 113 1582Q131 1600 157 1600L1142 1600M487 1870Q487 1835 463 1811Q439 1787 404 1787Q369 1787 345 1811Q321 1835 321 1870Q321 1904 345 1928.50Q369 1953 404 1953Q439 1953 463 1928.50Q487 1904 487 1870M985 1870Q985 1835 960.50 1811Q936 1787 902 1787Q867 1787 843 1811Q819 1835 819 1870Q819 1904 843 1928.50Q867 1953 902 1953Q936 1953 960.50 1928.50Q985 1904 985 1870Z"  horiz-adv-x="1280" vert-adv-y="2048"  />

      
      <glyph glyph-name="unicc" unicode="&#xcc;" d="M178 1538Q178 1564 195.50 1582Q213 1600 239 1600Q265 1600 283 1582Q301 1564 301 1538L301 62Q301 36 283 18Q265 0 239 0Q213 0 195.50 18Q178 36 178 62L178 1538M-1 2019Q-1 2045 17 2063Q35 2081 61 2081Q87 2081 105 2063L357 1811Q372 1794 372 1770Q372 1744 354 1725.50Q336 1707 310 1707Q286 1707 267 1723L15 1975Q7 1984 3 1995.50Q-1 2007-1 2019Z"  horiz-adv-x="480" vert-adv-y="2048"  />

      
      <glyph glyph-name="unicd" unicode="&#xcd;" d="M178 1538Q178 1564 195.50 1582Q213 1600 239 1600Q265 1600 283 1582Q301 1564 301 1538L301 62Q301 36 283 18Q265 0 239 0Q213 0 195.50 18Q178 36 178 62L178 1538M218 1721Q201 1705 176 1705Q150 1705 132 1723.50Q114 1742 114 1768Q114 1793 128 1809L380 2061Q398 2079 425 2079Q451 2079 469 2061Q487 2043 487 2017Q487 2005 483 1993.50Q479 1982 470 1973L218 1721Z"  horiz-adv-x="480" vert-adv-y="2048"  />

      
      <glyph glyph-name="unice" unicode="&#xce;" d="M178 1538Q178 1564 195.50 1582Q213 1600 239 1600Q265 1600 283 1582Q301 1564 301 1538L301 62Q301 36 283 18Q265 0 239 0Q213 0 195.50 18Q178 36 178 62L178 1538M521 1883Q554 1860 554 1828Q554 1802 535.50 1784Q517 1766 491 1766Q469 1766 451 1779L242 1918L33 1779Q15 1766-6 1766Q-32 1766-50.50 1784Q-69 1802-69 1828Q-69 1860-37 1883L211 2048Q225 2056 242 2056Q260 2056 274 2048L521 1883Z"  horiz-adv-x="480" vert-adv-y="2048"  />

      
      <glyph glyph-name="unicf" unicode="&#xcf;" d="M178 1538Q178 1564 195.50 1582Q213 1600 239 1600Q265 1600 283 1582Q301 1564 301 1538L301 62Q301 36 283 18Q265 0 239 0Q213 0 195.50 18Q178 36 178 62L178 1538M78 1870Q78 1835 54 1811Q30 1787-5 1787Q-40 1787-64 1811Q-88 1835-88 1870Q-88 1904-64 1928.50Q-40 1953-5 1953Q30 1953 54 1928.50Q78 1904 78 1870M576 1870Q576 1835 551.50 1811Q527 1787 493 1787Q458 1787 434 1811Q410 1835 410 1870Q410 1904 434 1928.50Q458 1953 493 1953Q527 1953 551.50 1928.50Q576 1904 576 1870Z"  horiz-adv-x="480" vert-adv-y="2048"  />

      
      <glyph glyph-name="unid0" unicode="&#xd0;" d="M244 862L244 1538Q244 1564 262 1582Q280 1600 306 1600L634 1600Q965 1600 1199 1365Q1434 1131 1434 800Q1434 469 1199 234Q965 0 634 0L306 0Q280 0 262 18Q244 36 244 62L244 738L61 738Q35 738 17 756Q-1 774-1 800Q-1 826 17 844Q35 862 61 862L244 862M367 862L716 862Q742 862 760 844Q778 826 778 800Q778 774 760 756Q742 738 716 738L367 738L367 123L634 123Q914 123 1112 321Q1311 520 1311 800Q1311 1079 1112 1278Q913 1477 634 1477L367 1477L367 862Z"  horiz-adv-x="1520" vert-adv-y="2048"  />

      
      <glyph glyph-name="unid1" unicode="&#xd1;" d="M216 62Q216 36 198.50 18Q181 0 155 0Q129 0 111 18Q93 36 93 62L93 1538Q93 1564 111 1582Q129 1600 155 1600Q184 1600 202 1578L1242 241L1242 1538Q1242 1564 1260 1582Q1278 1600 1304 1600Q1329 1600 1347 1582Q1365 1564 1365 1538L1365 62Q1365 36 1347 18Q1329 0 1304 0Q1274 0 1258 18L216 1358L216 62M767 1838Q680 1760 561 1760Q432 1760 340 1852Q332 1861 328 1872.50Q324 1884 324 1895Q324 1921 342 1939.50Q360 1958 386 1958Q411 1958 429 1941Q485 1885 561 1885Q628 1885 677 1925Q765 2004 885 2004Q1014 2004 1105 1913Q1122 1895 1122 1869Q1122 1843 1104 1825Q1086 1807 1060 1807Q1034 1807 1016 1824Q962 1880 885 1880Q820 1880 767 1838Z"  horiz-adv-x="1440" vert-adv-y="2048"  />

      
      <glyph glyph-name="unid2" unicode="&#xd2;" d="M891 1477Q613 1477 412 1278Q214 1080 214 800Q214 519 412 321Q611 123 891 123Q1171 123 1369 321Q1568 519 1568 800Q1568 1080 1369 1278Q1170 1477 891 1477M1691 800Q1691 469 1456 234Q1223 0 891 0Q728 0 585 61Q442 122 325 234Q213 351 152 494Q91 637 91 800Q91 1131 325 1365Q560 1600 891 1600Q1224 1600 1456 1365Q1691 1131 1691 800M723 2019Q723 2045 741 2063Q759 2081 785 2081Q811 2081 829 2063L1081 1811Q1096 1794 1096 1770Q1096 1744 1078 1725.50Q1060 1707 1034 1707Q1010 1707 991 1723L739 1975Q731 1984 727 1995.50Q723 2007 723 2019Z"  horiz-adv-x="1760" vert-adv-y="2048"  />

      
      <glyph glyph-name="unid3" unicode="&#xd3;" d="M891 1477Q613 1477 412 1278Q214 1080 214 800Q214 519 412 321Q611 123 891 123Q1171 123 1369 321Q1568 519 1568 800Q1568 1080 1369 1278Q1170 1477 891 1477M1691 800Q1691 469 1456 234Q1223 0 891 0Q728 0 585 61Q442 122 325 234Q213 351 152 494Q91 637 91 800Q91 1131 325 1365Q560 1600 891 1600Q1224 1600 1456 1365Q1691 1131 1691 800M799 1721Q782 1705 757 1705Q731 1705 713 1723.50Q695 1742 695 1768Q695 1793 709 1809L961 2061Q979 2079 1006 2079Q1032 2079 1050 2061Q1068 2043 1068 2017Q1068 2005 1064 1993.50Q1060 1982 1051 1973L799 1721Z"  horiz-adv-x="1760" vert-adv-y="2048"  />

      
      <glyph glyph-name="unid4" unicode="&#xd4;" d="M891 1477Q613 1477 412 1278Q214 1080 214 800Q214 519 412 321Q611 123 891 123Q1171 123 1369 321Q1568 519 1568 800Q1568 1080 1369 1278Q1170 1477 891 1477M1691 800Q1691 469 1456 234Q1223 0 891 0Q728 0 585 61Q442 122 325 234Q213 351 152 494Q91 637 91 800Q91 1131 325 1365Q560 1600 891 1600Q1224 1600 1456 1365Q1691 1131 1691 800M1165 1883Q1198 1860 1198 1828Q1198 1802 1179.50 1784Q1161 1766 1135 1766Q1113 1766 1095 1779L886 1918L677 1779Q659 1766 638 1766Q612 1766 593.50 1784Q575 1802 575 1828Q575 1860 607 1883L855 2048Q869 2056 886 2056Q904 2056 918 2048L1165 1883Z"  horiz-adv-x="1760" vert-adv-y="2048"  />

      
      <glyph glyph-name="unid5" unicode="&#xd5;" d="M891 1477Q613 1477 412 1278Q214 1080 214 800Q214 519 412 321Q611 123 891 123Q1171 123 1369 321Q1568 519 1568 800Q1568 1080 1369 1278Q1170 1477 891 1477M1691 800Q1691 469 1456 234Q1223 0 891 0Q728 0 585 61Q442 122 325 234Q213 351 152 494Q91 637 91 800Q91 1131 325 1365Q560 1600 891 1600Q1224 1600 1456 1365Q1691 1131 1691 800M925 1838Q838 1760 719 1760Q590 1760 498 1852Q490 1861 486 1872.50Q482 1884 482 1895Q482 1921 500 1939.50Q518 1958 544 1958Q569 1958 587 1941Q643 1885 719 1885Q786 1885 835 1925Q923 2004 1043 2004Q1172 2004 1263 1913Q1280 1895 1280 1869Q1280 1843 1262 1825Q1244 1807 1218 1807Q1192 1807 1174 1824Q1120 1880 1043 1880Q978 1880 925 1838Z"  horiz-adv-x="1760" vert-adv-y="2048"  />

      
      <glyph glyph-name="unid6" unicode="&#xd6;" d="M891 1477Q613 1477 412 1278Q214 1080 214 800Q214 519 412 321Q611 123 891 123Q1171 123 1369 321Q1568 519 1568 800Q1568 1080 1369 1278Q1170 1477 891 1477M1691 800Q1691 469 1456 234Q1223 0 891 0Q728 0 585 61Q442 122 325 234Q213 351 152 494Q91 637 91 800Q91 1131 325 1365Q560 1600 891 1600Q1224 1600 1456 1365Q1691 1131 1691 800M722 1870Q722 1835 698 1811Q674 1787 639 1787Q604 1787 580 1811Q556 1835 556 1870Q556 1904 580 1928.50Q604 1953 639 1953Q674 1953 698 1928.50Q722 1904 722 1870M1220 1870Q1220 1835 1195.50 1811Q1171 1787 1137 1787Q1102 1787 1078 1811Q1054 1835 1054 1870Q1054 1904 1078 1928.50Q1102 1953 1137 1953Q1171 1953 1195.50 1928.50Q1220 1904 1220 1870Z"  horiz-adv-x="1760" vert-adv-y="2048"  />

      
      <glyph glyph-name="unid7" unicode="&#xd7;" d="M388 726L99 1014Q83 1032 83 1058Q83 1084 101 1102Q119 1120 145 1120Q171 1120 191 1101L477 815L763 1101Q783 1120 809 1120Q835 1120 853 1102Q871 1084 871 1058Q871 1032 854 1014L566 726L854 438Q871 420 871 394Q871 368 853 350Q835 332 809 332Q783 332 766 347L477 637L188 347Q171 332 145 332Q119 332 101 350Q83 368 83 394Q83 420 99 438L388 726Z"  horiz-adv-x="960" vert-adv-y="2048"  />

      
      <glyph glyph-name="unid8" unicode="&#xd8;" d="M1487 1320Q1679 1092 1679 800Q1679 469 1444 234Q1211 0 879 0Q588 0 359 192L185 17Q167 0 141 0Q115 0 97 18Q79 36 79 62Q79 87 95 104L271 280Q79 509 79 800Q79 1131 313 1365Q548 1600 879 1600Q1169 1600 1399 1408L1574 1583Q1592 1600 1618 1600Q1644 1600 1661.50 1582Q1679 1564 1679 1538Q1679 1514 1665 1498L1487 1320M1312 1321Q1117 1477 879 1477Q601 1477 400 1278Q202 1080 202 800Q202 564 358 367L1312 1321M446 279Q642 123 879 123Q1159 123 1357 321Q1556 519 1556 800Q1556 1037 1400 1234L446 279Z"  horiz-adv-x="1760" vert-adv-y="2048"  />

      
      <glyph glyph-name="unid9" unicode="&#xd9;" d="M94 1538Q94 1564 112 1582Q130 1600 156 1600Q182 1600 199.50 1582Q217 1564 217 1538L217 554Q217 375 344 249Q470 123 648 123Q827 123 953 249Q1079 375 1079 554L1079 1538Q1079 1564 1097 1582Q1115 1600 1141 1600Q1166 1600 1184 1582Q1202 1564 1202 1538L1202 554Q1202 324 1040 162Q878 0 648 0Q418 0 256 162Q175 243 134.50 340.50Q94 438 94 554L94 1538M405 2019Q405 2045 423 2063Q441 2081 467 2081Q493 2081 511 2063L763 1811Q778 1794 778 1770Q778 1744 760 1725.50Q742 1707 716 1707Q692 1707 673 1723L421 1975Q413 1984 409 1995.50Q405 2007 405 2019Z"  horiz-adv-x="1280" vert-adv-y="2048"  />

      
      <glyph glyph-name="unida" unicode="&#xda;" d="M94 1538Q94 1564 112 1582Q130 1600 156 1600Q182 1600 199.50 1582Q217 1564 217 1538L217 554Q217 375 344 249Q470 123 648 123Q827 123 953 249Q1079 375 1079 554L1079 1538Q1079 1564 1097 1582Q1115 1600 1141 1600Q1166 1600 1184 1582Q1202 1564 1202 1538L1202 554Q1202 324 1040 162Q878 0 648 0Q418 0 256 162Q175 243 134.50 340.50Q94 438 94 554L94 1538M631 1721Q614 1705 589 1705Q563 1705 545 1723.50Q527 1742 527 1768Q527 1793 541 1809L793 2061Q811 2079 838 2079Q864 2079 882 2061Q900 2043 900 2017Q900 2005 896 1993.50Q892 1982 883 1973L631 1721Z"  horiz-adv-x="1280" vert-adv-y="2048"  />

      
      <glyph glyph-name="unidb" unicode="&#xdb;" d="M94 1538Q94 1564 112 1582Q130 1600 156 1600Q182 1600 199.50 1582Q217 1564 217 1538L217 554Q217 375 344 249Q470 123 648 123Q827 123 953 249Q1079 375 1079 554L1079 1538Q1079 1564 1097 1582Q1115 1600 1141 1600Q1166 1600 1184 1582Q1202 1564 1202 1538L1202 554Q1202 324 1040 162Q878 0 648 0Q418 0 256 162Q175 243 134.50 340.50Q94 438 94 554L94 1538M927 1883Q960 1860 960 1828Q960 1802 941.50 1784Q923 1766 897 1766Q875 1766 857 1779L648 1918L439 1779Q421 1766 400 1766Q374 1766 355.50 1784Q337 1802 337 1828Q337 1860 369 1883L617 2048Q631 2056 648 2056Q666 2056 680 2048L927 1883Z"  horiz-adv-x="1280" vert-adv-y="2048"  />

      
      <glyph glyph-name="unidc" unicode="&#xdc;" d="M94 1538Q94 1564 112 1582Q130 1600 156 1600Q182 1600 199.50 1582Q217 1564 217 1538L217 554Q217 375 344 249Q470 123 648 123Q827 123 953 249Q1079 375 1079 554L1079 1538Q1079 1564 1097 1582Q1115 1600 1141 1600Q1166 1600 1184 1582Q1202 1564 1202 1538L1202 554Q1202 324 1040 162Q878 0 648 0Q418 0 256 162Q175 243 134.50 340.50Q94 438 94 554L94 1538M484 1870Q484 1835 460 1811Q436 1787 401 1787Q366 1787 342 1811Q318 1835 318 1870Q318 1904 342 1928.50Q366 1953 401 1953Q436 1953 460 1928.50Q484 1904 484 1870M982 1870Q982 1835 957.50 1811Q933 1787 899 1787Q864 1787 840 1811Q816 1835 816 1870Q816 1904 840 1928.50Q864 1953 899 1953Q933 1953 957.50 1928.50Q982 1904 982 1870Z"  horiz-adv-x="1280" vert-adv-y="2048"  />

      
      <glyph glyph-name="unidd" unicode="&#xdd;" d="M710 62Q710 36 692 18Q674 0 648 0Q622 0 604.50 18Q587 36 587 62L587 782L104 1504Q94 1520 94 1538Q94 1564 112 1582Q130 1600 156 1600Q186 1600 205 1575L648 911L1091 1575Q1109 1600 1141 1600Q1166 1600 1184 1582Q1202 1564 1202 1538Q1202 1518 1192 1504L710 782L710 62M631 1721Q614 1705 589 1705Q563 1705 545 1723.50Q527 1742 527 1768Q527 1793 541 1809L793 2061Q811 2079 838 2079Q864 2079 882 2061Q900 2043 900 2017Q900 2005 896 1993.50Q892 1982 883 1973L631 1721Z"  horiz-adv-x="1280" vert-adv-y="2048"  />

      
      <glyph glyph-name="unide" unicode="&#xde;" d="M82 1538Q82 1564 100 1582Q118 1600 144 1600Q170 1600 187.50 1582Q205 1564 205 1538L205 1272L718 1272Q914 1272 1052 1133Q1190 996 1190 800Q1190 604 1052 466Q914 328 718 328L205 328L205 62Q205 36 187.50 18Q170 0 144 0Q118 0 100 18Q82 36 82 62L82 1538M718 451Q863 451 964 553Q1067 656 1067 800Q1067 944 964 1046Q864 1149 718 1149L205 1149L205 451L718 451Z"  horiz-adv-x="1280" vert-adv-y="2048"  />

      
      <glyph glyph-name="unidf" unicode="&#xdf;" d="M206 62Q206 36 188 18Q170 0 144 0Q118 0 99.50 18Q81 36 81 62L81 1224Q81 1307 110 1376Q139 1445 196 1503Q254 1560 323 1589Q392 1618 475 1618Q639 1618 754 1503Q869 1388 869 1224Q869 1080 778 972Q748 933 748 878Q748 785 817 748Q876 717 920 673Q1035 558 1035 394Q1035 230 920 115Q806 0 641 0Q477 0 362 115Q342 137 342 162Q342 188 360 206Q378 224 404 224Q431 224 452 204Q530 124 641 124Q752 124 831 203Q911 283 911 394Q911 506 832 585Q804 613 769 634Q733 656 701 685Q621 765 621 879Q621 985 690 1061Q745 1132 745 1224Q745 1335 665 1413Q585 1493 475 1493Q365 1493 286 1415Q206 1335 206 1224L206 62Z"  horiz-adv-x="1120" vert-adv-y="2048"  />

      
      <glyph glyph-name="unie0" unicode="&#xe0;" d="M652 996Q472 996 344 868Q216 740 216 560Q216 380 344 252Q472 124 652 124Q832 124 960 252Q1087 379 1087 560Q1087 741 960 868Q832 996 652 996M1087 203Q885 0 652 0Q420 0 256 164Q92 328 92 560Q92 792 256 956Q420 1120 652 1120Q884 1120 1048 956Q1212 792 1212 560L1212 62Q1212 36 1194 18Q1176 0 1150 0Q1124 0 1105.50 18Q1087 36 1087 62L1087 203M428 1539Q428 1565 446 1583Q464 1601 490 1601Q516 1601 534 1583L786 1331Q801 1314 801 1290Q801 1264 783 1245.50Q765 1227 739 1227Q715 1227 696 1243L444 1495Q436 1504 432 1515.50Q428 1527 428 1539Z"  horiz-adv-x="1280" vert-adv-y="2048"  />

      
      <glyph glyph-name="unie1" unicode="&#xe1;" d="M652 996Q472 996 344 868Q216 740 216 560Q216 380 344 252Q472 124 652 124Q832 124 960 252Q1087 379 1087 560Q1087 741 960 868Q832 996 652 996M1087 203Q885 0 652 0Q420 0 256 164Q92 328 92 560Q92 792 256 956Q420 1120 652 1120Q884 1120 1048 956Q1212 792 1212 560L1212 62Q1212 36 1194 18Q1176 0 1150 0Q1124 0 1105.50 18Q1087 36 1087 62L1087 203M583 1241Q566 1225 541 1225Q515 1225 497 1243.50Q479 1262 479 1288Q479 1313 493 1329L745 1581Q763 1599 790 1599Q816 1599 834 1581Q852 1563 852 1537Q852 1525 848 1513.50Q844 1502 835 1493L583 1241Z"  horiz-adv-x="1280" vert-adv-y="2048"  />

      
      <glyph glyph-name="unie2" unicode="&#xe2;" d="M652 996Q472 996 344 868Q216 740 216 560Q216 380 344 252Q472 124 652 124Q832 124 960 252Q1087 379 1087 560Q1087 741 960 868Q832 996 652 996M1087 203Q885 0 652 0Q420 0 256 164Q92 328 92 560Q92 792 256 956Q420 1120 652 1120Q884 1120 1048 956Q1212 792 1212 560L1212 62Q1212 36 1194 18Q1176 0 1150 0Q1124 0 1105.50 18Q1087 36 1087 62L1087 203M926 1403Q959 1380 959 1348Q959 1322 940.50 1304Q922 1286 896 1286Q874 1286 856 1299L647 1438L438 1299Q420 1286 399 1286Q373 1286 354.50 1304Q336 1322 336 1348Q336 1380 368 1403L616 1568Q630 1576 647 1576Q665 1576 679 1568L926 1403Z"  horiz-adv-x="1280" vert-adv-y="2048"  />

      
      <glyph glyph-name="unie3" unicode="&#xe3;" d="M652 996Q472 996 344 868Q216 740 216 560Q216 380 344 252Q472 124 652 124Q832 124 960 252Q1087 379 1087 560Q1087 741 960 868Q832 996 652 996M1087 203Q885 0 652 0Q420 0 256 164Q92 328 92 560Q92 792 256 956Q420 1120 652 1120Q884 1120 1048 956Q1212 792 1212 560L1212 62Q1212 36 1194 18Q1176 0 1150 0Q1124 0 1105.50 18Q1087 36 1087 62L1087 203M693 1358Q606 1280 487 1280Q358 1280 266 1372Q258 1381 254 1392.50Q250 1404 250 1415Q250 1441 268 1459.50Q286 1478 312 1478Q337 1478 355 1461Q411 1405 487 1405Q554 1405 603 1445Q691 1524 811 1524Q940 1524 1031 1433Q1048 1415 1048 1389Q1048 1363 1030 1345Q1012 1327 986 1327Q960 1327 942 1344Q888 1400 811 1400Q746 1400 693 1358Z"  horiz-adv-x="1280" vert-adv-y="2048"  />

      
      <glyph glyph-name="unie4" unicode="&#xe4;" d="M652 996Q472 996 344 868Q216 740 216 560Q216 380 344 252Q472 124 652 124Q832 124 960 252Q1087 379 1087 560Q1087 741 960 868Q832 996 652 996M1087 203Q885 0 652 0Q420 0 256 164Q92 328 92 560Q92 792 256 956Q420 1120 652 1120Q884 1120 1048 956Q1212 792 1212 560L1212 62Q1212 36 1194 18Q1176 0 1150 0Q1124 0 1105.50 18Q1087 36 1087 62L1087 203M483 1390Q483 1355 459 1331Q435 1307 400 1307Q365 1307 341 1331Q317 1355 317 1390Q317 1424 341 1448.50Q365 1473 400 1473Q435 1473 459 1448.50Q483 1424 483 1390M981 1390Q981 1355 956.50 1331Q932 1307 898 1307Q863 1307 839 1331Q815 1355 815 1390Q815 1424 839 1448.50Q863 1473 898 1473Q932 1473 956.50 1448.50Q981 1424 981 1390Z"  horiz-adv-x="1280" vert-adv-y="2048"  />

      
      <glyph glyph-name="unie5" unicode="&#xe5;" d="M652 996Q472 996 344 868Q216 740 216 560Q216 380 344 252Q472 124 652 124Q832 124 960 252Q1087 379 1087 560Q1087 741 960 868Q832 996 652 996M1087 203Q885 0 652 0Q420 0 256 164Q92 328 92 560Q92 792 256 956Q420 1120 652 1120Q884 1120 1048 956Q1212 792 1212 560L1212 62Q1212 36 1194 18Q1176 0 1150 0Q1124 0 1105.50 18Q1087 36 1087 62L1087 203M834 1412Q834 1335 779 1278Q724 1223 646 1223Q569 1223 512 1278Q457 1335 457 1412Q457 1490 512 1545Q569 1600 646 1600Q724 1600 779 1545Q834 1490 834 1412M646 1303Q691 1303 723 1335Q755 1367 755 1412Q755 1457 723 1489Q691 1521 646 1521Q601 1521 569 1489Q537 1457 537 1412Q537 1367 569 1335Q601 1303 646 1303Z"  horiz-adv-x="1280" vert-adv-y="2048"  />

      
      <glyph glyph-name="unie6" unicode="&#xe6;" d="M631 996Q451 996 323 868Q195 740 195 560Q195 380 323 252Q451 124 631 124Q811 124 939 252Q1067 380 1067 560Q1067 740 939 868Q811 996 631 996M2060 622Q2030 773 1935 868Q1805 996 1627 996Q1447 996 1319 868Q1269 819 1238.50 758Q1208 697 1193 622L2060 622M1191 62Q1191 36 1173 18Q1155 0 1129 0Q1103 0 1085 18Q1067 36 1067 62L1067 203Q864 0 631 0Q399 0 235 164Q71 328 71 560Q71 792 235 956Q399 1120 631 1120Q863 1120 1027 956Q1074 909 1129 822Q1155 864 1180 897.50Q1205 931 1230 956Q1394 1120 1627 1120Q1859 1120 2023 956Q2187 792 2187 560Q2187 534 2168.50 516Q2150 498 2124 498L1193 498Q1223 346 1319 252Q1447 124 1627 124Q1708 124 1778.50 150.50Q1849 177 1907 227Q1924 241 1946 241Q1972 241 1990 222.50Q2008 204 2008 178Q2008 150 1992 135Q1836 0 1627 0Q1394 0 1191 203L1191 62Z"  horiz-adv-x="2240" vert-adv-y="2048"  />

      
      <glyph glyph-name="unie7" unicode="&#xe7;" d="M975 243Q1001 243 1019 224.50Q1037 206 1037 180Q1037 154 1018 135Q942 70 849 35Q756 0 653 0Q421 0 257 164Q93 328 93 560Q93 792 257 956Q421 1120 653 1120Q756 1120 849.50 1085Q943 1050 1018 985Q1027 976 1033.50 963Q1040 950 1040 936Q1040 910 1022 892Q1004 874 978 874Q954 874 938 889Q816 996 653 996Q473 996 345 868Q218 741 218 560Q218 379 345 252Q473 124 653 124Q732 124 805.50 153Q879 182 938 231Q953 243 975 243M562 60Q579 77 605 77Q631 77 649.50 59Q668 41 668 15Q668 7 666-1L645-79Q696-101 727-125Q792-182 792-265Q792-346 726-404Q659-462 564-462Q511-462 455-434L364-380Q336-360 336-327Q336-301 354-283Q372-265 398-265Q417-265 432-274L513-325Q537-337 564-337Q607-337 637.50-317.50Q668-298 668-265Q668-231 637.50-211.50Q607-192 564-192Q538-192 520-174Q502-156 502-130Q502-119 505-110L545 33Q550 48 562 60Z"  horiz-adv-x="1120" vert-adv-y="2048"  />

      
      <glyph glyph-name="unie8" unicode="&#xe8;" d="M1073 622Q1045 771 948 868Q820 996 640 996Q460 996 332 868Q236 772 206 622L1073 622M959 241Q985 241 1003 222.50Q1021 204 1021 178Q1021 152 1005 135Q849 0 640 0Q408 0 244 164Q80 328 80 560Q80 792 244 956Q408 1120 640 1120Q872 1120 1036 956Q1200 792 1200 560Q1200 534 1182 516Q1164 498 1138 498L206 498Q236 348 332 252Q460 124 640 124Q722 124 792 150.50Q862 177 920 227Q937 241 959 241M426 1539Q426 1565 444 1583Q462 1601 488 1601Q514 1601 532 1583L784 1331Q799 1314 799 1290Q799 1264 781 1245.50Q763 1227 737 1227Q713 1227 694 1243L442 1495Q434 1504 430 1515.50Q426 1527 426 1539Z"  horiz-adv-x="1280" vert-adv-y="2048"  />

      
      <glyph glyph-name="unie9" unicode="&#xe9;" d="M1073 622Q1045 771 948 868Q820 996 640 996Q460 996 332 868Q236 772 206 622L1073 622M959 241Q985 241 1003 222.50Q1021 204 1021 178Q1021 152 1005 135Q849 0 640 0Q408 0 244 164Q80 328 80 560Q80 792 244 956Q408 1120 640 1120Q872 1120 1036 956Q1200 792 1200 560Q1200 534 1182 516Q1164 498 1138 498L206 498Q236 348 332 252Q460 124 640 124Q722 124 792 150.50Q862 177 920 227Q937 241 959 241M584 1241Q567 1225 542 1225Q516 1225 498 1243.50Q480 1262 480 1288Q480 1313 494 1329L746 1581Q764 1599 791 1599Q817 1599 835 1581Q853 1563 853 1537Q853 1525 849 1513.50Q845 1502 836 1493L584 1241Z"  horiz-adv-x="1280" vert-adv-y="2048"  />

      
      <glyph glyph-name="uniea" unicode="&#xea;" d="M1073 622Q1045 771 948 868Q820 996 640 996Q460 996 332 868Q236 772 206 622L1073 622M959 241Q985 241 1003 222.50Q1021 204 1021 178Q1021 152 1005 135Q849 0 640 0Q408 0 244 164Q80 328 80 560Q80 792 244 956Q408 1120 640 1120Q872 1120 1036 956Q1200 792 1200 560Q1200 534 1182 516Q1164 498 1138 498L206 498Q236 348 332 252Q460 124 640 124Q722 124 792 150.50Q862 177 920 227Q937 241 959 241M914 1403Q947 1380 947 1348Q947 1322 928.50 1304Q910 1286 884 1286Q862 1286 844 1299L635 1438L426 1299Q408 1286 387 1286Q361 1286 342.50 1304Q324 1322 324 1348Q324 1380 356 1403L604 1568Q618 1576 635 1576Q653 1576 667 1568L914 1403Z"  horiz-adv-x="1280" vert-adv-y="2048"  />

      
      <glyph glyph-name="unieb" unicode="&#xeb;" d="M1073 622Q1045 771 948 868Q820 996 640 996Q460 996 332 868Q236 772 206 622L1073 622M959 241Q985 241 1003 222.50Q1021 204 1021 178Q1021 152 1005 135Q849 0 640 0Q408 0 244 164Q80 328 80 560Q80 792 244 956Q408 1120 640 1120Q872 1120 1036 956Q1200 792 1200 560Q1200 534 1182 516Q1164 498 1138 498L206 498Q236 348 332 252Q460 124 640 124Q722 124 792 150.50Q862 177 920 227Q937 241 959 241M471 1390Q471 1355 447 1331Q423 1307 388 1307Q353 1307 329 1331Q305 1355 305 1390Q305 1424 329 1448.50Q353 1473 388 1473Q423 1473 447 1448.50Q471 1424 471 1390M969 1390Q969 1355 944.50 1331Q920 1307 886 1307Q851 1307 827 1331Q803 1355 803 1390Q803 1424 827 1448.50Q851 1473 886 1473Q920 1473 944.50 1448.50Q969 1424 969 1390Z"  horiz-adv-x="1280" vert-adv-y="2048"  />

      
      <glyph glyph-name="uniec" unicode="&#xec;" d="M170 1058Q170 1084 188 1102Q206 1120 232 1120Q258 1120 276.50 1102Q295 1084 295 1058L295 62Q295 36 276.50 18Q258 0 232 0Q206 0 188 18Q170 36 170 62L170 1058M26 1539Q26 1565 44 1583Q62 1601 88 1601Q114 1601 132 1583L384 1331Q399 1314 399 1290Q399 1264 381 1245.50Q363 1227 337 1227Q313 1227 294 1243L42 1495Q34 1504 30 1515.50Q26 1527 26 1539Z"  horiz-adv-x="480" vert-adv-y="2048"  />

      
      <glyph glyph-name="unied" unicode="&#xed;" d="M170 1058Q170 1084 188 1102Q206 1120 232 1120Q258 1120 276.50 1102Q295 1084 295 1058L295 62Q295 36 276.50 18Q258 0 232 0Q206 0 188 18Q170 36 170 62L170 1058M193 1241Q176 1225 151 1225Q125 1225 107 1243.50Q89 1262 89 1288Q89 1313 103 1329L355 1581Q373 1599 400 1599Q426 1599 444 1581Q462 1563 462 1537Q462 1525 458 1513.50Q454 1502 445 1493L193 1241Z"  horiz-adv-x="480" vert-adv-y="2048"  />

      
      <glyph glyph-name="uniee" unicode="&#xee;" d="M211 1058Q211 1084 229 1102Q247 1120 273 1120Q299 1120 317.50 1102Q336 1084 336 1058L336 62Q336 36 317.50 18Q299 0 273 0Q247 0 229 18Q211 36 211 62L211 1058M561 1403Q594 1380 594 1348Q594 1322 575.50 1304Q557 1286 531 1286Q509 1286 491 1299L282 1438L73 1299Q55 1286 34 1286Q8 1286-10.50 1304Q-29 1322-29 1348Q-29 1380 3 1403L251 1568Q265 1576 282 1576Q300 1576 314 1568L561 1403Z"  horiz-adv-x="560" vert-adv-y="2048"  />

      
      <glyph glyph-name="unief" unicode="&#xef;" d="M230 1058Q230 1084 248 1102Q266 1120 292 1120Q318 1120 336.50 1102Q355 1084 355 1058L355 62Q355 36 336.50 18Q318 0 292 0Q266 0 248 18Q230 36 230 62L230 1058M139 1390Q139 1355 115 1331Q91 1307 56 1307Q21 1307-3 1331Q-27 1355-27 1390Q-27 1424-3 1448.50Q21 1473 56 1473Q91 1473 115 1448.50Q139 1424 139 1390M637 1390Q637 1355 612.50 1331Q588 1307 554 1307Q519 1307 495 1331Q471 1355 471 1390Q471 1424 495 1448.50Q519 1473 554 1473Q588 1473 612.50 1448.50Q637 1424 637 1390Z"  horiz-adv-x="600" vert-adv-y="2048"  />

      
      <glyph glyph-name="unif0" unicode="&#xf0;" d="M640 996Q460 996 332 868Q204 740 204 560Q204 380 332 252Q460 124 640 124Q820 124 948 252Q1075 379 1075 560Q1075 741 948 868Q820 996 640 996M633 1443L588 1519Q578 1539 578 1556Q578 1582 596 1600Q614 1618 640 1618Q675 1618 693 1590L741 1507L900 1599Q914 1607 931 1607Q948 1607 962.50 1599.50Q977 1592 985 1577Q993 1565 993 1545Q993 1529 985 1514.50Q977 1500 963 1491L804 1398Q1011 1040 1052.50 968Q1094 896 1133 829Q1165 770 1182.50 701Q1200 632 1200 560Q1200 328 1036 164Q872 0 640 0Q408 0 244 164Q80 328 80 560Q80 792 244 956Q408 1120 640 1120Q681 1120 729.50 1112.50Q778 1105 838 1088L695 1335L532 1240Q518 1232 502 1232Q468 1232 450 1260Q440 1277 440 1294Q440 1310 448 1325Q456 1340 470 1348L633 1443Z"  horiz-adv-x="1280" vert-adv-y="2048"  />

      
      <glyph glyph-name="unif1" unicode="&#xf1;" d="M81 1058Q81 1084 99 1102Q117 1120 143 1120Q169 1120 187 1102Q205 1084 205 1058L205 942Q389 1120 599 1120Q815 1120 965 968Q1118 816 1118 601L1118 62Q1118 36 1099.50 18Q1081 0 1055 0Q1029 0 1011 18Q993 36 993 62L993 601Q993 766 877 879Q761 996 599 996Q437 996 320 879Q205 765 205 601L205 62Q205 36 187 18Q169 0 143 0Q117 0 99 18Q81 36 81 62L81 1058M646 1358Q559 1280 440 1280Q311 1280 219 1372Q211 1381 207 1392.50Q203 1404 203 1415Q203 1441 221 1459.50Q239 1478 265 1478Q290 1478 308 1461Q364 1405 440 1405Q507 1405 556 1445Q644 1524 764 1524Q893 1524 984 1433Q1001 1415 1001 1389Q1001 1363 983 1345Q965 1327 939 1327Q913 1327 895 1344Q841 1400 764 1400Q699 1400 646 1358Z"  horiz-adv-x="1200" vert-adv-y="2048"  />

      
      <glyph glyph-name="unif2" unicode="&#xf2;" d="M1200 560Q1200 328 1036 164Q872 0 640 0Q408 0 244 164Q80 328 80 560Q80 792 244 956Q408 1120 640 1120Q872 1120 1036 956Q1200 792 1200 560M640 996Q460 996 332 868Q204 740 204 560Q204 380 332 252Q460 124 640 124Q820 124 948 252Q1075 379 1075 560Q1075 741 948 868Q820 996 640 996M426 1539Q426 1565 444 1583Q462 1601 488 1601Q514 1601 532 1583L784 1331Q799 1314 799 1290Q799 1264 781 1245.50Q763 1227 737 1227Q713 1227 694 1243L442 1495Q434 1504 430 1515.50Q426 1527 426 1539Z"  horiz-adv-x="1280" vert-adv-y="2048"  />

      
      <glyph glyph-name="unif3" unicode="&#xf3;" d="M1200 560Q1200 328 1036 164Q872 0 640 0Q408 0 244 164Q80 328 80 560Q80 792 244 956Q408 1120 640 1120Q872 1120 1036 956Q1200 792 1200 560M640 996Q460 996 332 868Q204 740 204 560Q204 380 332 252Q460 124 640 124Q820 124 948 252Q1075 379 1075 560Q1075 741 948 868Q820 996 640 996M583 1241Q566 1225 541 1225Q515 1225 497 1243.50Q479 1262 479 1288Q479 1313 493 1329L745 1581Q763 1599 790 1599Q816 1599 834 1581Q852 1563 852 1537Q852 1525 848 1513.50Q844 1502 835 1493L583 1241Z"  horiz-adv-x="1280" vert-adv-y="2048"  />

      
      <glyph glyph-name="unif4" unicode="&#xf4;" d="M1200 560Q1200 328 1036 164Q872 0 640 0Q408 0 244 164Q80 328 80 560Q80 792 244 956Q408 1120 640 1120Q872 1120 1036 956Q1200 792 1200 560M640 996Q460 996 332 868Q204 740 204 560Q204 380 332 252Q460 124 640 124Q820 124 948 252Q1075 379 1075 560Q1075 741 948 868Q820 996 640 996M914 1403Q947 1380 947 1348Q947 1322 928.50 1304Q910 1286 884 1286Q862 1286 844 1299L635 1438L426 1299Q408 1286 387 1286Q361 1286 342.50 1304Q324 1322 324 1348Q324 1380 356 1403L604 1568Q618 1576 635 1576Q653 1576 667 1568L914 1403Z"  horiz-adv-x="1280" vert-adv-y="2048"  />

      
      <glyph glyph-name="unif5" unicode="&#xf5;" d="M1200 560Q1200 328 1036 164Q872 0 640 0Q408 0 244 164Q80 328 80 560Q80 792 244 956Q408 1120 640 1120Q872 1120 1036 956Q1200 792 1200 560M640 996Q460 996 332 868Q204 740 204 560Q204 380 332 252Q460 124 640 124Q820 124 948 252Q1075 379 1075 560Q1075 741 948 868Q820 996 640 996M681 1358Q594 1280 475 1280Q346 1280 254 1372Q246 1381 242 1392.50Q238 1404 238 1415Q238 1441 256 1459.50Q274 1478 300 1478Q325 1478 343 1461Q399 1405 475 1405Q542 1405 591 1445Q679 1524 799 1524Q928 1524 1019 1433Q1036 1415 1036 1389Q1036 1363 1018 1345Q1000 1327 974 1327Q948 1327 930 1344Q876 1400 799 1400Q734 1400 681 1358Z"  horiz-adv-x="1280" vert-adv-y="2048"  />

      
      <glyph glyph-name="unif6" unicode="&#xf6;" d="M1200 560Q1200 328 1036 164Q872 0 640 0Q408 0 244 164Q80 328 80 560Q80 792 244 956Q408 1120 640 1120Q872 1120 1036 956Q1200 792 1200 560M640 996Q460 996 332 868Q204 740 204 560Q204 380 332 252Q460 124 640 124Q820 124 948 252Q1075 379 1075 560Q1075 741 948 868Q820 996 640 996M471 1390Q471 1355 447 1331Q423 1307 388 1307Q353 1307 329 1331Q305 1355 305 1390Q305 1424 329 1448.50Q353 1473 388 1473Q423 1473 447 1448.50Q471 1424 471 1390M969 1390Q969 1355 944.50 1331Q920 1307 886 1307Q851 1307 827 1331Q803 1355 803 1390Q803 1424 827 1448.50Q851 1473 886 1473Q920 1473 944.50 1448.50Q969 1424 969 1390Z"  horiz-adv-x="1280" vert-adv-y="2048"  />

      
      </font>
</defs>
</svg>
