<svg width="130" height="130" viewBox="0 0 130 130" fill="none" xmlns="http://www.w3.org/2000/svg">
<g filter="url(#filter0_d_18_42)">
<circle cx="65" cy="65" r="35" fill="#F5FAFF"/>
</g>
<path d="M76.0364 60.9051C75.3781 60.9051 74.8843 61.4288 74.8843 62.0573C74.8843 62.6708 75.3781 63.2094 76.0364 63.2094C76.6649 63.2094 77.1886 62.7007 77.1886 62.0573C77.1886 61.4138 76.6649 60.9051 76.0364 60.9051Z" fill="#020202"/>
<path d="M52.2777 57.1025C51.6791 57.1025 51.2302 57.5814 51.2302 58.135C51.2302 58.6886 51.6791 59.1675 52.2777 59.1675C52.8463 59.1675 53.3101 58.7036 53.3101 58.135C53.3101 57.5664 52.8463 57.1025 52.2777 57.1025Z" fill="#020202"/>
<path d="M84.3361 69.2636L84.3367 69.2669C84.3707 69.4713 84.3269 69.6961 84.2041 69.9055C84.0466 70.1633 83.8492 70.2436 83.4422 70.4094L83.4265 70.4158L83.4265 70.4158L83.4224 70.4176C78.6772 72.4512 72.6511 72.0012 67.544 70.9857C62.7873 70.0286 59.0987 68.6195 58.5927 68.4263C58.5716 68.4182 58.556 68.4122 58.5461 68.4085C57.0897 67.8491 55.6824 67.6801 54.3409 67.9134C52.999 68.1468 51.7385 68.78 50.572 69.8006C49.2853 70.919 48.4462 72.2326 48.0369 72.9299L47.9615 73.0585L48.0387 73.186C49.6198 75.7956 51.8781 77.1933 54.7671 77.3014L54.7684 77.3015C55.958 77.3399 57.0408 77.152 57.8266 76.9536C58.22 76.8543 58.5406 76.7519 58.7649 76.673C58.877 76.6335 58.9655 76.5998 59.0273 76.575C59.0581 76.5627 59.083 76.5523 59.1013 76.5443C59.1102 76.5404 59.1189 76.5365 59.1265 76.5329C59.129 76.5317 59.1324 76.5301 59.1362 76.5281C59.6577 76.3029 60.2616 76.6283 60.3664 77.1875L60.3666 77.1882C60.8985 79.9805 60.5464 82.0591 59.3745 83.4433C58.042 85.0025 56.1192 85.0763 55.8239 85.0763C55.6482 85.0763 55.4971 85.0305 55.3526 84.9464C55.2011 84.8554 53.3128 83.7043 51.2455 81.6943C49.169 79.6753 46.9309 76.8082 46.0713 73.2963C45.0717 69.2096 45.8037 64.5724 48.9322 60.3519L48.9326 60.3513C49.2575 59.9104 49.9007 59.8705 50.2903 60.2601C50.6057 60.5755 50.6422 61.0652 50.3711 61.4307L50.3704 61.4315C48.09 64.5329 47.4941 67.564 47.4788 69.8077L47.4741 70.5077L47.9212 69.9691C49.5392 68.0201 51.3822 66.8221 53.3041 66.3044C55.2256 65.7868 57.2426 65.9447 59.2175 66.7347C59.3004 66.7678 63.1018 68.255 67.9705 69.2167L68.4368 69.3088L68.2485 68.8724C67.1088 66.2304 66.61 63.599 66.9479 61.1955C67.2849 58.7982 68.456 56.6113 70.6878 54.8478L71.0802 54.5377L70.5967 54.4099C68.4696 53.8478 66.1816 53.7124 63.9605 53.8786C62.1035 54.0145 59.9376 54.4071 58.1868 55.0922L58.1859 55.0925C57.4474 55.3849 56.7438 55.768 55.9115 56.3129L55.9115 56.3129L55.9097 56.314C55.8804 56.3336 55.8524 56.3505 55.82 56.37C55.8091 56.3766 55.7977 56.3834 55.7856 56.3908C55.7432 56.4166 55.6934 56.4478 55.645 56.4857C55.2983 56.7244 54.823 56.6789 54.5193 56.3752L54.5194 56.3752L54.5168 56.3727C54.1101 55.9776 54.1763 55.3117 54.6465 54.9939C54.6467 54.9938 54.6469 54.9936 54.647 54.9935L54.9138 54.8157C54.914 54.8155 54.9142 54.8154 54.9144 54.8153C56.5052 53.7695 57.8834 53.1384 60.1719 52.6364L60.5004 52.5643L60.3368 52.2706C59.6492 51.0361 58.4574 49.6376 55.6697 49.0061L55.6697 49.006L55.6635 49.0048C54.7871 48.8295 54.6686 47.5897 55.5626 47.2712C59.3177 45.9705 63.1148 45.9409 66.2726 48.1964L66.2727 48.1966C68.0538 49.4667 69.1384 51.1494 69.7268 52.2968L69.7823 52.4051L69.9017 52.4282C78.4306 54.078 83.015 60.6093 84.3361 69.2636ZM62.257 52.0959L62.3352 52.2596L62.515 52.2361C63.7592 52.0732 65.3291 51.9695 67.0463 52.0731L67.5769 52.1052L67.2631 51.6761C65.9254 49.8463 63.5298 47.8845 59.5743 48.2077L58.8746 48.2649L59.4529 48.6628C61.031 49.7486 61.7856 51.109 62.257 52.0959ZM58.7966 78.8737L58.7743 78.5714L58.4817 78.6508C56.0983 79.2982 53.5527 79.3088 51.2802 78.3765L50.9938 78.7684C52.9607 81.1136 55.1972 82.7002 55.9864 83.2162L56.0659 83.2682L56.1598 83.2543C56.5888 83.1907 57.4242 82.9818 58.0353 82.2551L58.0367 82.2534C58.665 81.4928 58.9033 80.3227 58.7966 78.8737ZM70.5669 69.5535L70.6269 69.6655L70.7528 69.683C74.4322 70.1936 78.7327 70.2901 82.2637 68.9355L82.4585 68.8608L82.4199 68.6558C81.3341 62.8955 78.6391 57.8683 73.3018 55.3827L73.1819 55.3268L73.0683 55.3945C70.9162 56.6766 69.5203 58.3398 68.9456 60.3742C67.9441 63.9025 69.5759 67.7067 70.5669 69.5535Z" fill="#020202" stroke="#F5FAFF" stroke-width="0.5"/>
<defs>
<filter id="filter0_d_18_42" x="0" y="0" width="130" height="130" filterUnits="userSpaceOnUse" color-interpolation-filters="sRGB">
<feFlood flood-opacity="0" result="BackgroundImageFix"/>
<feColorMatrix in="SourceAlpha" type="matrix" values="0 0 0 0 0 0 0 0 0 0 0 0 0 0 0 0 0 0 127 0" result="hardAlpha"/>
<feOffset/>
<feGaussianBlur stdDeviation="15"/>
<feColorMatrix type="matrix" values="0 0 0 0 0.337255 0 0 0 0 0.337255 0 0 0 0 0.337255 0 0 0 0.25 0"/>
<feBlend mode="normal" in2="BackgroundImageFix" result="effect1_dropShadow_18_42"/>
<feBlend mode="normal" in="SourceGraphic" in2="effect1_dropShadow_18_42" result="shape"/>
</filter>
</defs>
</svg>
