<svg width="130" height="130" viewBox="0 0 130 130" fill="none" xmlns="http://www.w3.org/2000/svg">
<g filter="url(#filter0_d_18_44)">
<circle cx="65" cy="65" r="35" fill="#F5FAFF"/>
</g>
<path d="M54.4921 55.9279C54.6435 55.8706 54.7658 55.7556 54.8323 55.6081C54.8988 55.4606 54.904 55.2927 54.8467 55.1414L54.7747 54.9512C54.7175 54.7999 54.6024 54.6775 54.4549 54.611C54.3074 54.5445 54.1396 54.5394 53.9883 54.5966C53.8369 54.6539 53.7146 54.7689 53.6481 54.9164C53.5816 55.0639 53.5764 55.2318 53.6337 55.3831L53.7057 55.5733C53.7629 55.7246 53.878 55.847 54.0255 55.9135C54.173 55.98 54.3408 55.9851 54.4921 55.9279Z" fill="black"/>
<path d="M58.739 67.1486C58.8903 67.0913 59.0127 66.9763 59.0792 66.8288C59.1457 66.6813 59.1508 66.5134 59.0936 66.3621L55.7823 57.6139C55.725 57.4626 55.61 57.3402 55.4625 57.2737C55.315 57.2072 55.1471 57.202 54.9958 57.2593C54.8445 57.3166 54.7221 57.4316 54.6556 57.5791C54.5892 57.7266 54.584 57.8945 54.6412 58.0458L57.9525 66.794C58.0098 66.9453 58.1248 67.0677 58.2723 67.1342C58.4198 67.2007 58.5877 67.2058 58.739 67.1486Z" fill="black"/>
<path d="M66.2824 89.9493L79.5948 84.9104C80.25 84.6616 80.7797 84.163 81.0678 83.5241C81.3559 82.8852 81.3787 82.1581 81.1314 81.5023L68.4623 48.031C68.0727 47.0056 67.3039 46.1691 66.315 45.6946C65.326 45.2202 64.1925 45.144 63.1489 45.4818L62.4992 43.7653L62.8795 43.6214C63.0309 43.5641 63.1532 43.449 63.2197 43.3016C63.2862 43.1541 63.2914 42.9862 63.2341 42.8349L62.0824 39.792C61.8335 39.1368 61.335 38.6071 60.696 38.3191C60.0571 38.031 59.33 38.0082 58.6743 38.2555L51.0672 41.1348C50.412 41.3837 49.8823 41.8823 49.5942 42.5212C49.3062 43.1601 49.2833 43.8872 49.5306 44.5429L50.6824 47.5858C50.7397 47.7371 50.8547 47.8595 51.0022 47.926C51.1497 47.9925 51.3176 47.9977 51.4689 47.9404L51.8492 47.7964L52.4989 49.5129C51.4932 49.9507 50.6942 50.7584 50.2673 51.7688C49.8404 52.7792 49.8181 53.9151 50.2052 54.9414L62.8743 88.4127C63.1231 89.0679 63.6217 89.5976 64.2606 89.8857C64.8996 90.1737 65.6266 90.1966 66.2824 89.9493V89.9493ZM50.6717 44.111C50.5385 43.758 50.5508 43.3664 50.7059 43.0224C50.861 42.6783 51.1463 42.4099 51.4991 42.2759L59.1062 39.3966C59.4593 39.2634 59.8508 39.2756 60.1948 39.4308C60.5389 39.5859 60.8073 39.8711 60.9413 40.2239L61.8771 42.6962L51.6075 46.5834L50.6717 44.111ZM61.3581 44.1972L62.006 45.9088L53.6381 49.0761L52.9903 47.3645L61.3581 44.1972ZM51.3462 54.5095C51.0608 53.7529 51.0872 52.9139 51.4196 52.1767C51.7519 51.4395 52.3632 50.8642 53.1192 50.5771L63.3888 46.69C64.1454 46.4046 64.9844 46.4309 65.7216 46.7633C66.4588 47.0957 67.0341 47.7069 67.3212 48.4629L70.5416 56.9711L62.1365 60.1525C61.9852 60.2097 61.8628 60.3248 61.7963 60.4723C61.7298 60.6198 61.7246 60.7876 61.7819 60.939L62.7656 63.5379C62.8229 63.6892 62.9379 63.8116 63.0854 63.8781C63.2329 63.9446 63.4008 63.9498 63.5521 63.8925C63.7034 63.8352 63.8258 63.7202 63.8923 63.5727C63.9588 63.4252 63.964 63.2573 63.9067 63.106L63.1389 61.0776L70.9735 58.1121L76.3089 72.2081L68.4743 75.1736L65.7063 67.8605C65.649 67.7092 65.534 67.5868 65.3865 67.5203C65.239 67.4538 65.0711 67.4486 64.9198 67.5059C64.7685 67.5632 64.6461 67.6782 64.5796 67.8257C64.5131 67.9732 64.508 68.1411 64.5652 68.2924L67.5492 76.176C67.6065 76.3273 67.7215 76.4497 67.869 76.5162C68.0165 76.5827 68.1844 76.5879 68.3357 76.5306L76.7408 73.3492L79.9903 81.9342C80.1235 82.2873 80.1112 82.6788 79.9561 83.0229C79.801 83.3669 79.5158 83.6354 79.1629 83.7693L65.8505 88.8082C65.4974 88.9414 65.1059 88.9291 64.7618 88.774C64.4178 88.6189 64.1493 88.3336 64.0154 87.9808L51.3462 54.5095Z" fill="black"/>
<defs>
<filter id="filter0_d_18_44" x="0" y="0" width="130" height="130" filterUnits="userSpaceOnUse" color-interpolation-filters="sRGB">
<feFlood flood-opacity="0" result="BackgroundImageFix"/>
<feColorMatrix in="SourceAlpha" type="matrix" values="0 0 0 0 0 0 0 0 0 0 0 0 0 0 0 0 0 0 127 0" result="hardAlpha"/>
<feOffset/>
<feGaussianBlur stdDeviation="15"/>
<feColorMatrix type="matrix" values="0 0 0 0 0.337255 0 0 0 0 0.337255 0 0 0 0 0.337255 0 0 0 0.25 0"/>
<feBlend mode="normal" in2="BackgroundImageFix" result="effect1_dropShadow_18_44"/>
<feBlend mode="normal" in="SourceGraphic" in2="effect1_dropShadow_18_44" result="shape"/>
</filter>
</defs>
</svg>
