<svg width="130" height="130" viewBox="0 0 130 130" fill="none" xmlns="http://www.w3.org/2000/svg">
<g filter="url(#filter0_d_18_41)">
<circle cx="65" cy="65" r="35" fill="#F5FAFF"/>
</g>
<path d="M86.5952 63.4773L86.536 63.1503L86.4049 63.4557C86.0778 64.2177 85.6623 64.9456 85.1627 65.6218C84.8965 65.9819 84.3887 66.0583 84.0285 65.792L83.969 65.8724L84.0285 65.7919C83.6682 65.5258 83.592 65.018 83.8582 64.6577C85.3643 62.6197 85.9715 60.0321 85.5236 57.5581C85.1119 55.2845 83.7827 53.4831 81.5642 52.1643C79.3491 50.8474 76.2474 50.0112 72.2822 49.6577C64.9528 49.0045 57.0004 50.231 53.9235 50.7881C46.7021 52.0955 41.891 59.0341 43.1984 66.2554C44.5058 73.4767 51.4443 78.2879 58.6656 76.9804C62.0869 76.361 64.5634 74.7586 67.1668 73.0742L67.1729 73.0702C70.1813 71.1238 73.2784 69.1205 78.1129 68.2453C78.3945 68.1943 78.6763 68.1295 78.951 68.0528L78.9241 67.9565L78.951 68.0528C79.3819 67.9324 79.8298 68.1843 79.9503 68.6155C80.0708 69.0469 79.8189 69.4943 79.3875 69.6148C79.0645 69.705 78.7329 69.7812 78.4018 69.8411C73.8853 70.6589 70.9152 72.5806 68.0571 74.4299L68.054 74.4319C65.289 76.221 62.6932 77.8994 58.9546 78.5763C53.4089 79.5804 48.0119 77.3673 44.688 73.272L44.5133 73.359C46.1856 80.1105 52.8619 84.5034 59.8002 83.2472C63.2215 82.6278 65.698 81.0254 68.3014 79.341L68.3075 79.337C71.3159 77.3905 74.413 75.3873 79.2475 74.512C84.2372 73.6086 87.5615 68.8145 86.6581 63.8247L86.5952 63.4773ZM72.4261 48.0421C76.3367 48.3907 79.5232 49.2192 81.902 50.4996C84.842 52.0821 86.5927 54.3594 87.1195 57.2691L88.2541 63.5358C89.3168 69.4052 85.406 75.0453 79.5365 76.108C75.0199 76.9257 72.0499 78.8474 69.1917 80.6967L69.1886 80.6988C66.4236 82.4878 63.8279 84.1663 60.0892 84.8432C51.988 86.3099 44.2038 80.9123 42.737 72.811L41.6024 66.5443C40.1357 58.4431 45.5333 50.6588 53.6345 49.192C56.7801 48.6225 64.9037 47.3716 72.4261 48.0421Z" fill="#020202" stroke="#F5FAFF" stroke-width="0.2"/>
<path d="M82.1229 66.4464L82.1229 66.4464L82.1237 66.4458C82.4883 66.186 82.9948 66.2711 83.2547 66.6359C83.5123 66.9974 83.4309 67.4982 83.0743 67.7599L83.0741 67.7601C82.9708 67.8363 82.8557 67.8844 82.7375 67.9058C82.4445 67.9588 82.1335 67.848 81.9431 67.5938C81.6747 67.2354 81.7477 66.7271 82.1062 66.4586L82.1063 66.4585C82.1124 66.454 82.1185 66.4495 82.1229 66.4464Z" fill="#020202" stroke="#F5FAFF" stroke-width="0.2"/>
<path d="M52.0706 61.0155C51.6706 58.8062 53.3278 56.6331 55.7887 56.1875C58.2497 55.742 60.5634 57.1961 60.9634 59.4055C61.3634 61.6148 59.7064 63.7879 57.2454 64.2334C54.7845 64.679 52.4707 63.2249 52.0706 61.0155ZM53.6666 60.7265C53.9116 62.0796 55.4006 62.919 56.9564 62.6373C58.5122 62.3557 59.6124 61.0474 59.3674 59.6943C59.1225 58.3412 57.6334 57.5018 56.0776 57.7834C54.5218 58.0651 53.4216 59.3735 53.6666 60.7265Z" fill="#020202" stroke="#F5FAFF" stroke-width="0.2"/>
<defs>
<filter id="filter0_d_18_41" x="0" y="0" width="130" height="130" filterUnits="userSpaceOnUse" color-interpolation-filters="sRGB">
<feFlood flood-opacity="0" result="BackgroundImageFix"/>
<feColorMatrix in="SourceAlpha" type="matrix" values="0 0 0 0 0 0 0 0 0 0 0 0 0 0 0 0 0 0 127 0" result="hardAlpha"/>
<feOffset/>
<feGaussianBlur stdDeviation="15"/>
<feColorMatrix type="matrix" values="0 0 0 0 0.337255 0 0 0 0 0.337255 0 0 0 0 0.337255 0 0 0 0.25 0"/>
<feBlend mode="normal" in2="BackgroundImageFix" result="effect1_dropShadow_18_41"/>
<feBlend mode="normal" in="SourceGraphic" in2="effect1_dropShadow_18_41" result="shape"/>
</filter>
</defs>
</svg>
